<svg width="1680" height="1355" viewBox="0 0 1680 1355" fill="none" xmlns="http://www.w3.org/2000/svg">
<path fill-rule="evenodd" clip-rule="evenodd" d="M-6.66249 763.44L93.2179 824.54L98.1046 827.218L102.991 829.896L107.878 832.574L112.766 835.249L118.462 837.595L124.161 839.941L129.531 841.484L135.229 843.83L140.599 845.373L145.969 846.917L151.34 848.463L157.191 848.873L162.561 850.416L168.414 850.825L174.269 851.236L180.119 851.646L185.973 852.055L191.827 852.467L197.349 852.075L203.202 852.484L209.538 851.761L215.063 851.371L220.259 850.176L226.594 849.453L231.791 848.261L237.798 846.736L242.994 845.541L249.001 844.017L254.681 841.69L259.876 840.498L265.556 838.171L495.151 744.108L498.396 742.779L500.831 741.781L503.264 740.784L506.838 740.257L509.598 740.06L512.362 739.864L515.936 739.336L518.697 739.142L521.459 738.947L524.551 739.551L527.312 739.356L530.402 739.961L533.494 740.567L535.772 741.506L538.864 742.11L541.142 743.05L544.563 744.456L546.841 745.395L549.449 747.134L552.055 748.873L554.336 749.812L556.942 751.551L558.738 753.622L561.348 755.363L563.142 757.435L564.939 759.506L567.065 762.381L568.861 764.452L570.655 766.524L572.78 769.397L573.766 771.802L574.751 774.206L576.064 777.412L577.049 779.815L578.034 782.221L579.348 785.426L579.521 788.163L579.697 790.9L580.198 794.438L580.371 797.174L580.544 799.911L580.72 802.648L580.081 805.717L580.254 808.453L579.619 811.523L578.98 814.592L578.015 816.86L577.377 819.929L576.74 822.996L574.962 825.598L573.997 827.864L572.218 830.466L571.253 832.731L569.475 835.333L567.699 837.934L565.922 840.532L563.815 842.332L561.71 844.131L559.934 846.729L557.017 848.86L554.582 849.858L552.477 851.657L549.561 853.788L547.128 854.785L544.692 855.783L541.447 857.112L311.853 951.175L304.067 955.299L295.954 958.623L288.981 962.416L281.198 966.541L273.741 971.467L267.096 976.062L259.967 981.79L253.323 986.385L247.006 991.78L240.206 998.309L234.218 1004.51L229.042 1010.37L223.054 1016.57L217.394 1023.57L212.545 1030.23L208.026 1037.7L203.504 1045.17L198.983 1052.64L195.276 1059.77L191.894 1067.71L188.514 1075.65L185.132 1083.58L182.565 1091.19L180.323 1099.59L178.081 1108L176.654 1116.07L174.412 1124.48L174.122 1133.02L172.692 1141.09L172.402 1149.64L172.112 1158.18L172.632 1166.39L173.483 1175.4L174.005 1183.61L174.524 1191.82L176.187 1200.5L178.658 1208.85L179.989 1216.72L182.463 1225.07L185.747 1233.09L189.03 1241.1L235.326 1354.1L395.962 1288.29L349.666 1175.29L348.68 1172.88L348.024 1171.28L347.367 1169.68L347.52 1167.74L346.863 1166.14L347.018 1164.2L346.362 1162.6L346.189 1159.87L345.532 1158.26L345.687 1156.33L345.842 1154.39L345.994 1152.46L346.479 1151.32L346.633 1149.39L346.788 1147.45L346.941 1145.52L347.908 1143.25L348.392 1142.12L348.544 1140.18L349.512 1137.91L349.995 1136.78L350.959 1134.51L352.254 1133.04L352.739 1131.91L353.703 1129.64L354.998 1128.18L356.292 1126.71L357.587 1125.25L358.879 1123.78L360.174 1122.31L361.469 1120.85L362.763 1119.38L364.387 1118.72L365.679 1117.25L366.975 1115.78L368.596 1115.12L370.219 1114.45L371.512 1112.99L373.136 1112.32L375.569 1111.33L377.192 1110.66L545.941 1041.53L551.619 1039.2L556.488 1037.2L562.494 1035.68L567.691 1034.49L573.369 1032.16L579.706 1031.44L584.903 1030.24L590.098 1029.05L596.435 1028.33L601.957 1027.94L608.295 1027.21L613.817 1026.82L619.671 1027.23L625.196 1026.84L631.047 1027.25L636.901 1027.66L642.754 1028.07L648.124 1029.61L653.976 1030.03L659.346 1031.57L665.528 1032.78L670.898 1034.32L676.268 1035.87L681.635 1037.41L687.334 1039.76L692.704 1041.3L697.591 1043.98L703.289 1046.32L708.176 1049L713.065 1051.68L718.279 1055.16L817.831 1115.46L1016.6 1034.02L743.841 867.787L746.237 857.448L748.961 847.905L751.356 837.567L752.613 826.755L753.386 817.078L753.829 806.603L754.273 796.124L753.907 785.98L753.542 775.833L752.035 765.219L749.717 754.938L748.54 745.124L745.41 735.176L742.281 725.224L739.153 715.275L735.213 705.658L730.46 696.372L725.709 687.088L720.475 678.936L714.912 669.984L709.351 661.032L703.305 653.212L696.447 645.728L689.261 637.438L681.593 630.286L674.255 623.932L665.775 617.109L657.623 611.091L649.474 605.07L640.51 599.382L631.876 594.496L622.429 589.942L612.984 585.388L603.056 581.969L593.128 578.549L583.199 575.127L573.599 572.509L563.516 571.024L553.107 568.738L542.54 568.387L532.456 566.902L521.891 566.55L511.653 567.001L500.604 567.784L490.695 569.037L479.974 570.619L470.393 572.674L460.001 575.058L449.61 577.445L439.873 581.434L429.81 584.62L-6.66249 763.44ZM1933.36 658.435L1595.1 452.584L1600.89 438.979L1605.88 425.703L1610.54 411.628L1614.38 397.887L1618.22 384.144L1620.93 369.933L1622.49 355.251L1624.39 341.374L1625.14 327.025L1624.76 312.208L1624.7 298.192L1623.5 283.706L1621.49 269.554L1619.15 254.601L1615.52 241.111L1611.89 227.625L1607.93 213.336L1602.35 199.71L1597.1 186.888L1590.71 173.596L1583.83 161.436L1576.63 148.477L1568.13 136.985L1559.63 125.49L1551.13 113.997L1541.01 103.167L1531.22 93.1408L1520.28 82.6437L1510.01 73.7495L1498.59 64.3891L1486.69 56.1601L1474.79 47.9311L1462.41 40.8356L1449.22 34.0737L1436.36 28.1105L1422.68 22.4831L1409.33 17.6545L1395.18 13.1607L1381.35 9.46658L1367.03 6.90697L1352.72 4.34741L1338.41 1.78778L1323.94 1.16467L1309.47 0.538335L1295.33 0.714954L1280.38 1.22543L1265.76 2.53649L1251.46 4.64867L1237.5 7.56136L1222.72 10.8081L1209.41 15.3237L1194.96 19.3733L1181.98 24.6909L-254 613L-72.1623 723.823L1247 183.376L1253.81 181.519L1260.3 178.86L1267.12 177L1274.27 175.945L1281.09 174.088L1288.24 173.031L1294.9 173.11L1302.38 172.855L1309.04 172.932L1316.51 172.679L1323.51 173.557L1330.5 174.437L1337.01 176.45L1344.33 178.13L1350.84 180.141L1357.35 182.154L1364.19 184.969L1370.21 188.117L1376.24 191.263L1382.59 195.212L1388.95 199.159L1394.16 202.639L1400.04 207.721L1404.77 212.334L1409.5 216.946L1414.56 222.361L1419.62 227.776L1423.54 232.721L1427.79 238.467L1431.23 244.546L1434.67 250.627L1437.3 257.038L1441.06 263.918L1442.88 270.662L1445.5 277.073L1447.32 283.819L1449.14 290.562L1450.14 297.638L1450.82 303.911L1451.01 311.322L1451.2 318.73L1451.07 325.336L1450.93 331.945L1450.31 339.686L1449.04 345.824L1447.28 353.095L1445.52 360.369L1443.43 366.838L1441.35 373.308L1438.45 380.112L1435.22 386.112L1432 392.113L1427.96 398.448L1424.73 404.45L1420.37 409.982L1416 415.514L1410.5 420.579L1405.8 425.309L1400.3 430.371L1395.6 435.104L1389.77 439.365L1383.94 443.627L1377.78 447.088L1371.61 450.548L1365.12 453.206L1358.96 456.667L1077.44 572.002L1259.28 682.826L1367.99 638.287L1375.3 635.296L1382.11 633.439L1389.41 630.448L1397.05 628.258L1404.67 626.066L1411.82 625.01L1419.78 623.621L1426.93 622.566L1434.89 621.178L1442.03 620.121L1450.32 619.535L1457.79 619.28L1465.27 619.025L1473.07 619.571L1480.88 620.117L1488.68 620.666L1496.48 621.213L1503.48 622.091L1511.61 623.44L1518.93 625.121L1526.25 626.799L1533.57 628.481L1541.22 630.963L1548.06 633.778L1555.38 635.459L1562.55 639.073L1569.38 641.889L1576.22 644.702L1583.39 648.318L1589.74 652.266L1596.1 656.216L1734.59 739.869L1933.36 658.435ZM1160.9 789.584L1154.41 792.243L1147.59 794.102L1140.77 795.959L1133.95 797.817L1126.8 798.872L1119.66 799.929L1113.32 800.652L1105.85 800.907L1099.18 800.83L1091.38 800.283L1084.39 799.403L1077.39 798.523L1070.88 796.51L1063.89 795.631L1057.06 792.819L1050.54 790.806L1043.71 787.99L1037.68 784.843L1031.65 781.697L1025.3 777.748L1019.27 774.603L1013.73 770.321L1008.19 766.041L1003.13 760.625L997.581 756.346L993.333 750.599L988.598 745.986L984.351 740.239L980.1 734.493L976.664 728.414L973.225 722.333L969.787 716.254L967.16 709.843L964.534 703.432L962.719 696.689L960.903 689.943L959.086 683.2L958.083 676.124L957.078 669.049L956.887 661.64L956.209 655.364L956.83 647.623L956.964 641.015L957.911 634.076L958.857 627.136L960.616 619.864L962.702 613.393L964.461 606.122L966.547 599.651L969.772 593.649L972.671 586.848L975.897 580.846L979.934 574.512L983.489 569.312L987.854 563.78L992.22 558.248L997.397 552.383L1002.09 547.651L1007.59 542.589L1012.62 538.658L1018.45 534.397L1024.28 530.135L1030.12 525.873L1036.61 523.214L1042.77 519.753L1049.26 517.095L1339.7 398.103L1157.54 286.478L983.921 357.607L970.458 364.059L956.183 370.844L943.048 378.096L930.241 386.15L916.953 395.34L904.472 404.197L893.462 414.322L881.641 424.781L870.958 435.711L860.276 446.638L851.061 458.837L841.846 471.036L833.774 483.703L824.887 496.704L817.952 509.84L811.345 523.777L805.878 538.187L800.411 552.594L795.755 566.669L791.429 581.545L788.24 596.889L785.864 611.903L784.299 626.584L783.062 642.065L782.636 657.216L783.023 672.032L784.548 687.318L786.073 702.604L788.411 717.56L792.369 731.849L795.846 747.272L800.616 761.228L806.526 775.654L812.107 789.278L818.829 803.371L826.844 815.999L834.378 829.759L843.205 842.056L852.844 854.018L862.153 865.178L872.602 876.811L883.536 887.306L895.279 897.471L906.694 906.833L918.921 915.864L931.959 924.56L945.479 932.125L958.673 938.889L972.676 945.319L986.681 951.748L1000.84 956.242L1015 960.738L1030.78 964.567L1045.42 967.929L1060.54 970.156L1075.34 971.581L1090.95 972.677L1106.23 972.968L1121.99 972.127L1136.61 970.817L1152.05 969.173L1167.96 966.396L1182.74 963.149L1197.19 959.103L1212.12 953.92L1225.91 948.269L1663.19 769.118L1563.64 708.82L1558.43 705.342L1553.54 702.664L1548.65 699.986L1542.96 697.64L1538.07 694.962L1532.7 693.419L1527 691.073L1521.63 689.53L1516.26 687.986L1510.89 686.443L1504.71 685.231L1499.34 683.687L1493.49 683.276L1488.12 681.733L1482.27 681.323L1476.41 680.911L1470.56 680.503L1465.04 680.894L1459.18 680.483L1452.85 681.209L1447.32 681.598L1441.8 681.991L1435.46 682.714L1430.27 683.907L1424.26 685.432L1418.73 685.824L1413.05 688.151L1407.86 689.343L1401.85 690.868L1396.98 692.861L1391.3 695.189L1160.9 789.584Z" fill="#F5F5F5" fill-opacity="0.5"/>
</svg>
