<svg width="541" height="1068" viewBox="0 0 541 1068" fill="none" xmlns="http://www.w3.org/2000/svg">
<g clip-path="url(#clip0_3147_173)">
<g filter="url(#filter0_d_3147_173)">
<path d="M474.5 103.5L474.5 25.5C474.5 17.2157 467.784 10.5 459.5 10.5C451.216 10.5 444.5 17.2157 444.5 25.5L444.5 103.5C444.5 111.784 451.216 118.5 459.5 118.5C467.784 118.5 474.5 111.784 474.5 103.5Z" fill="#EEEEEE"/>
<path d="M474.5 1022.5L474.5 944.5C474.5 936.216 467.784 929.5 459.5 929.5C451.216 929.5 444.5 936.216 444.5 944.5L444.5 1022.5C444.5 1030.78 451.216 1037.5 459.5 1037.5C467.784 1037.5 474.5 1030.78 474.5 1022.5Z" fill="#EEEEEE"/>
<path d="M390.5 1022.5L390.5 944.5C390.5 936.216 383.784 929.5 375.5 929.5C367.216 929.5 360.5 936.216 360.5 944.5L360.5 1022.5C360.5 1030.78 367.216 1037.5 375.5 1037.5C383.784 1037.5 390.5 1030.78 390.5 1022.5Z" fill="#EEEEEE"/>
<path d="M122.671 1024.62L182.076 974.068C188.385 968.7 189.148 959.233 183.779 952.924C178.411 946.614 168.944 945.852 162.635 951.22L103.23 1001.77C96.9203 1007.14 96.1577 1016.6 101.526 1022.91C106.895 1029.22 116.362 1029.98 122.671 1024.62Z" fill="#EEEEEE"/>
<path fill-rule="evenodd" clip-rule="evenodd" d="M490.5 63.5C518.114 63.5 540.5 85.8858 540.5 113.5L540.5 944.5C540.5 972.114 518.114 994.5 490.5 994.5L444.5 994.5L444.5 960.5C444.5 945.588 432.412 933.5 417.5 933.5C402.588 933.5 390.5 945.588 390.5 960.5L390.5 994.5L90.5 994.5C62.886 994.5 40.5 972.114 40.5 944.5L40.5 113.5C40.5 85.8858 62.886 63.5 90.5 63.5L390.5 63.5L390.5 90.5C390.5 105.412 402.588 117.5 417.5 117.5C432.412 117.5 444.5 105.412 444.5 90.5L444.5 63.5L490.5 63.5Z" fill="#EEEEEE"/>
<path d="M221 1037.5C249.995 1037.5 273.5 1013.99 273.5 985C273.5 956.005 249.995 932.5 221 932.5L215 932.5C186.005 932.5 162.5 956.005 162.5 985C162.5 1013.99 186.005 1037.5 215 1037.5L221 1037.5Z" fill="#EEEEEE"/>
<path d="M390.5 118.5L390.5 60.5L360.5 60.5L360.5 118.5L390.5 118.5Z" fill="#EEEEEE"/>
<path d="M338.5 10.5L315.5 10.5C307.216 10.5 300.5 17.2157 300.5 25.5C300.5 33.7843 307.216 40.5 315.5 40.5L338.5 40.5C346.784 40.5 353.5 33.7843 353.5 25.5C353.5 17.2157 346.784 10.5 338.5 10.5Z" fill="#EEEEEE"/>
<path d="M236.5 10.5L130.5 10.5C122.216 10.5 115.5 17.2157 115.5 25.5C115.5 33.7843 122.216 40.5 130.5 40.5L236.5 40.5C244.784 40.5 251.5 33.7843 251.5 25.5C251.5 17.2157 244.784 10.5 236.5 10.5Z" fill="#EEEEEE"/>
<path fill-rule="evenodd" clip-rule="evenodd" d="M340.5 10.5C368.114 10.5 390.5 32.8858 390.5 60.5L360.5 60.5C360.5 49.4543 351.546 40.5 340.5 40.5L340.5 10.5Z" fill="#EEEEEE"/>
<path d="M260.5 25.5C260.5 33.7843 267.216 40.5 275.5 40.5C283.784 40.5 290.5 33.7843 290.5 25.5C290.5 17.2157 283.784 10.5 275.5 10.5C267.216 10.5 260.5 17.2157 260.5 25.5Z" fill="#EEEEEE"/>
<path d="M260.5 25.5C260.5 33.7843 267.216 40.5 275.5 40.5C283.784 40.5 290.5 33.7843 290.5 25.5C290.5 17.2157 283.784 10.5 275.5 10.5C267.216 10.5 260.5 17.2157 260.5 25.5Z" fill="#EEEEEE"/>
<path d="M73.5 25.5C73.5 33.7843 80.2157 40.5 88.5 40.5C96.7843 40.5 103.5 33.7843 103.5 25.5C103.5 17.2157 96.7843 10.5 88.5 10.5C80.2157 10.5 73.5 17.2157 73.5 25.5Z" fill="#EEEEEE"/>
<path d="M73.5 25.5C73.5 33.7843 80.2157 40.5 88.5 40.5C96.7843 40.5 103.5 33.7843 103.5 25.5C103.5 17.2157 96.7843 10.5 88.5 10.5C80.2157 10.5 73.5 17.2157 73.5 25.5Z" fill="#EEEEEE"/>
</g>
</g>
<defs>
<filter id="filter0_d_3147_173" x="30.5" y="10.5" width="540" height="1067" filterUnits="userSpaceOnUse" color-interpolation-filters="sRGB">
<feFlood flood-opacity="0" result="BackgroundImageFix"/>
<feColorMatrix in="SourceAlpha" type="matrix" values="0 0 0 0 0 0 0 0 0 0 0 0 0 0 0 0 0 0 127 0" result="hardAlpha"/>
<feOffset dx="10" dy="20"/>
<feGaussianBlur stdDeviation="10"/>
<feComposite in2="hardAlpha" operator="out"/>
<feColorMatrix type="matrix" values="0 0 0 0 0.0156863 0 0 0 0 0.27451 0 0 0 0 0.945098 0 0 0 0.1 0"/>
<feBlend mode="normal" in2="BackgroundImageFix" result="effect1_dropShadow_3147_173"/>
<feBlend mode="normal" in="SourceGraphic" in2="effect1_dropShadow_3147_173" result="shape"/>
</filter>
<clipPath id="clip0_3147_173">
<rect width="1067" height="540" fill="white" transform="translate(540.5 0.5) rotate(90)"/>
</clipPath>
</defs>
</svg>
