<svg width="68" height="30" viewBox="0 0 68 30" fill="none" xmlns="http://www.w3.org/2000/svg">
<path fill-rule="evenodd" clip-rule="evenodd" d="M5.76475 7.82194L8.08825 10.9915L8.20588 11.1369L8.32352 11.2823L8.44116 11.4277L8.55888 11.573L8.70587 11.7184L8.85293 11.8638L9 11.9801L9.14707 12.1255L9.29414 12.2418L9.44121 12.3581L9.58828 12.4745L9.76469 12.5617L9.91176 12.678L10.0883 12.7652L10.2648 12.8525L10.4412 12.9397L10.6177 13.0269L10.7942 13.1142L10.9706 13.1723L11.1471 13.2595L11.3529 13.3177L11.5294 13.3759L11.7059 13.4049L11.9118 13.4631L12.0883 13.4922L12.2941 13.5213L12.4706 13.5503L12.6765 13.5794H12.8824L13.0588 13.6085H13.2647H21.5883H21.7059H21.7942H21.8824L22 13.6376L22.0882 13.6666L22.1765 13.6957L22.2942 13.7248L22.3824 13.7539L22.4706 13.783L22.5589 13.8411L22.6471 13.8702L22.7353 13.9283L22.8236 13.9865L22.8824 14.0447L22.9707 14.1028L23.0294 14.161L23.1177 14.2482L23.1765 14.3064L23.2354 14.3936L23.2941 14.4808L23.353 14.539L23.4118 14.6262L23.4412 14.7134L23.5001 14.8007L23.5294 14.8879L23.5588 14.9751L23.5883 15.0915L23.6177 15.1787L23.6471 15.2659L23.6765 15.3822V15.4695V15.5567V15.673V15.7602V15.8475V15.9638L23.6471 16.051L23.6177 16.1383L23.5883 16.2546L23.5588 16.3418L23.5294 16.429L23.5001 16.5163L23.4412 16.6035L23.4118 16.6907L23.353 16.778L23.2941 16.8652L23.2354 16.9234L23.1765 17.0106L23.1177 17.0978L23.0294 17.156L22.9707 17.2141L22.8824 17.2723L22.8236 17.3304L22.7353 17.3886L22.6471 17.4468L22.5589 17.5049L22.4706 17.534L22.3824 17.5631L22.2942 17.6212L22.1765 17.6503H22.0882L22 17.6794L21.8824 17.7085H21.7942H21.7059H21.5883H13.2647L12.9706 17.7375H12.6765L12.4118 17.7666L12.1177 17.7957L11.8236 17.8538L11.5589 17.912L11.2647 17.9992L11 18.0574L10.7353 18.1446L10.4412 18.2609L10.1765 18.3772L9.94118 18.4936L9.67648 18.6099L9.41177 18.7553L9.1765 18.9007L8.94122 19.0751L8.70586 19.2496L8.47059 19.4241L8.26474 19.5986L8.05881 19.8021L7.85296 20.0057L7.64704 20.2092L7.47062 20.4128L7.29412 20.6454L7.11762 20.878L6.97064 21.1107L6.79414 21.3433L6.6765 21.605L6.52943 21.8376L6.4118 22.0993L6.29416 22.361L6.20587 22.6227L6.11766 22.9135L6.02945 23.1752L5.94116 23.4369L5.88238 23.7277L5.85295 24.0184L5.79409 24.2801L5.76475 24.5709V24.8617V25.1525V29.2525H11.5883V25.1525V25.0652V25.0071V24.9489L11.6176 24.8908V24.8326L11.6471 24.7744V24.7163L11.6765 24.6291V24.5709L11.7059 24.5128L11.7354 24.4546L11.7647 24.3964L11.7941 24.3674L11.8236 24.3092L11.853 24.251L11.8823 24.1929L11.9412 24.1347L11.9706 24.1057L12 24.0475L12.0588 23.9894L12.0883 23.9603L12.147 23.9021L12.2059 23.873L12.2353 23.844L12.2941 23.7858L12.353 23.7567L12.4118 23.7277L12.4706 23.6986L12.5294 23.6695L12.5883 23.6404L12.6471 23.6113L12.7059 23.5823H12.7648L12.8235 23.5532L12.8824 23.5241H12.9412H13L13.0588 23.495H13.1177H13.2059H13.2647H19.3824H19.5883H19.7648L19.9706 23.5241L20.1471 23.5532H20.3529L20.5589 23.6113L20.7354 23.6404L20.9118 23.6695L21.1177 23.7277L21.2941 23.7858L21.5001 23.844L21.6765 23.9021L21.853 23.9894L22.0295 24.0475L22.2059 24.1347L22.3824 24.222L22.5589 24.3092L22.7059 24.4255L22.8824 24.5128L23.0294 24.6291L23.2059 24.7454L23.353 24.8617L23.5001 24.978L23.6471 25.0943L23.7941 25.2397L23.9412 25.356L24.0588 25.5014L24.2059 25.6468L24.3235 25.7922L24.4413 25.9376L24.5589 26.112L26.8824 29.2525H34.0883L27.7354 20.6162L27.9412 20.3255L28.1471 20.0637L28.353 19.773L28.5295 19.4531L28.6766 19.1623L28.8235 18.8425L28.9706 18.5226L29.0882 18.2028L29.206 17.8829L29.2942 17.534L29.353 17.1851L29.4412 16.8652L29.4706 16.5163L29.5 16.1673L29.5294 15.8184V15.4695L29.5 15.1205L29.4706 14.7716L29.4118 14.4517L29.353 14.1028L29.2942 13.7539L29.206 13.434L29.0882 13.1142L28.9706 12.7652L28.8235 12.4454L28.6766 12.1546L28.5001 11.8347L28.3236 11.5439L28.1471 11.2531L27.9412 10.9623L27.7354 10.7006L27.5 10.4389L27.2647 10.1772L27 9.94463L26.7353 9.71203L26.4706 9.47934L26.2059 9.27583L25.9118 9.10133L25.6177 8.89782L25.2942 8.75242L25 8.57793L24.6765 8.43253L24.353 8.31622L24 8.19992L23.6765 8.11271L23.3236 8.02542L23 7.96731L22.6471 7.90912L22.2942 7.85101H21.9412L21.5883 7.82191L5.76475 7.82194ZM67.3237 29.2525L59.4413 18.5518L59.7942 18.2029L60.1177 17.8539L60.4413 17.4759L60.7354 17.0979L61.0295 16.7199L61.2942 16.3128L61.5295 15.8766L61.7648 15.4695L61.9707 15.0333L62.1472 14.5681L62.3236 14.1319L62.4707 13.6666L62.5883 13.2014L62.7059 12.7071L62.7648 12.2418L62.8236 11.7766L62.8824 11.2823V10.7879V10.3227L62.853 9.82839L62.7942 9.3631L62.7354 8.86879L62.6177 8.40358L62.5001 7.93828L62.3825 7.47307L62.206 7.00778L62.0295 6.57166L61.8236 6.10637L61.6178 5.69926L61.3824 5.26315L61.1177 4.85605L60.853 4.44894L60.5589 4.07094L60.2354 3.69293L59.9119 3.34394L59.5589 2.99503L59.206 2.67514L58.8236 2.35532L58.4413 2.06453L58.0295 1.80282L57.6177 1.54112L57.206 1.27942L56.7648 1.07591L56.3236 0.872314L55.8824 0.697819L55.4119 0.523405L54.9413 0.378006L54.4707 0.261702L54.0001 0.174413L53.5001 0.0872068L53.0295 0.0581104L52.5295 0H52.0589H0L4.2353 5.75746H52.059L52.2942 5.78656H52.5295L52.7649 5.81557L53.0002 5.87376L53.2354 5.90286L53.4707 5.96097L53.6766 6.04826L53.9119 6.13547L54.1178 6.22267L54.353 6.30996L54.559 6.42626L54.7648 6.54257L54.9413 6.68797L55.1472 6.83337L55.3237 6.97868L55.5001 7.12408L55.6767 7.29858L55.8236 7.47307L55.9707 7.64749L56.1178 7.85108L56.2648 8.05459L56.3825 8.22908L56.5001 8.46169L56.5884 8.66528L56.6766 8.86879L56.7648 9.1014L56.8531 9.33409L56.9119 9.5376L56.9707 9.7702L57.0001 10.0028L57.0295 10.2355V10.4681L57.059 10.7298L57.0295 10.9624V11.195L57.0001 11.4277L56.9707 11.6603L56.9119 11.8929L56.8531 12.0964L56.7648 12.3291L56.6766 12.5617L56.5884 12.7652L56.5001 12.9688L56.3825 13.2014L56.2648 13.3759L56.1178 13.5794L55.9707 13.783L55.8236 13.9574L55.6767 14.1319L55.5001 14.3064L55.3237 14.4518L55.1472 14.5972L54.9413 14.7426L54.7648 14.8879L54.559 15.0043L54.353 15.1206L54.1178 15.2078L53.9119 15.2951L53.6766 15.3823L53.4707 15.4695L53.2354 15.5277L53.0002 15.5859L52.7649 15.6149L52.5295 15.644H52.2942L52.059 15.6731H41.8531L46.0883 21.4305H50.0295H50.2942L50.5295 21.4596H50.7942L51.0589 21.4887L51.3236 21.5177L51.559 21.5759L51.8237 21.634L52.059 21.6922L52.3237 21.7504L52.5589 21.8085L52.8236 21.8958L53.0589 21.983L53.2942 22.0702L53.5296 22.1865L53.7648 22.3028L54.0001 22.4192L54.2354 22.5355L54.4413 22.6518L54.6766 22.7972L54.8824 22.9426L55.0884 23.0879L55.2942 23.2333L55.5001 23.4078L55.6766 23.5823L55.8825 23.7277L56.059 23.9312L56.2354 24.1057L56.4119 24.2801L56.5884 24.4837L56.7355 24.6873L56.8825 24.8908L60.1178 29.2525L67.3237 29.2525ZM41.6765 23.495H41.4412L41.2059 23.466L40.9707 23.4369L40.7353 23.4078L40.5 23.3496L40.2648 23.2915L40.0588 23.2333L39.8236 23.1461L39.6177 23.0589L39.3824 22.9426L39.1765 22.8262L38.9707 22.7099L38.7942 22.5645L38.5883 22.4482L38.4118 22.2738L38.2353 22.1284L38.0589 21.9539L37.9118 21.7794L37.7648 21.605L37.6177 21.4014L37.4706 21.227L37.353 21.0234L37.2354 20.8199L37.1471 20.5872L37.0294 20.3837L36.9706 20.1511L36.8824 19.9475L36.8236 19.7149L36.7647 19.4823L36.7354 19.2497L36.7059 19.017L36.6765 18.7844V18.5518V18.3191L36.7059 18.0865L36.7354 17.8539L36.7647 17.6212L36.8236 17.3886L36.8824 17.156L36.9706 16.9234L37.0294 16.7198L37.1471 16.4872L37.2354 16.2836L37.353 16.0801L37.4706 15.8765L37.6177 15.673L37.7648 15.4985L37.9118 15.295L38.0589 15.1205L38.2353 14.9751L38.4118 14.8007L38.5883 14.6553L38.7942 14.5099L38.9707 14.3936L39.1765 14.2773L39.3824 14.161L39.6177 14.0447L39.8236 13.9574L40.0588 13.8702L40.2648 13.812L40.5 13.7539L40.7353 13.6957L40.9707 13.6376H41.2059L41.4412 13.6085H41.6765H52.206L47.9707 7.82195H41.6765L41.1765 7.85105L40.6471 7.88014L40.1471 7.93825L39.6472 8.02546L39.1178 8.14184L38.6177 8.25815L38.1471 8.43256L37.6472 8.60706L37.1765 8.81065L36.706 9.01416L36.2648 9.27586L35.8236 9.53757L35.4119 9.82836L34.9707 10.1192L34.5883 10.439L34.206 10.7879L33.853 11.166L33.5001 11.544L33.1765 11.922L32.853 12.3291L32.5589 12.7652L32.2942 13.2014L32.0589 13.6376L31.8236 14.1028L31.6177 14.5681L31.4413 15.0333L31.2942 15.5276L31.1471 16.0219L31.0295 16.5163L30.9706 17.0106L30.8824 17.534L30.853 18.0284V18.5518V19.0461L30.8824 19.5695L30.9706 20.0638L31.0295 20.5872L31.1471 21.0816L31.2942 21.5759L31.4413 22.0411L31.6177 22.5355L31.8236 23.0007L32.0589 23.466L32.2942 23.9021L32.5589 24.3383L32.853 24.7744L33.1765 25.1815L33.5001 25.5596L33.853 25.9376L34.206 26.3156L34.5883 26.6354L34.9707 26.9553L35.4119 27.2751L35.8236 27.5659L36.2648 27.8277L36.706 28.0603L37.1765 28.2929L37.6472 28.4965L38.1471 28.6709L38.6177 28.8163L39.1178 28.9617L39.6472 29.0781L40.1471 29.1653L40.6471 29.2234L41.1765 29.2525H41.6765H57.5294L55.206 26.112L55.0883 25.9376L54.9707 25.7922L54.853 25.6468L54.706 25.5014L54.5883 25.356L54.4413 25.2397L54.2942 25.0943L54.1471 24.978L54.0001 24.8617L53.853 24.7454L53.6766 24.6291L53.5295 24.5128L53.353 24.4255L53.2059 24.3092L53.0295 24.222L52.853 24.1347L52.6765 24.0475L52.5001 23.9894L52.3236 23.9021L52.1177 23.844L51.9413 23.7858L51.7648 23.7277L51.5589 23.6695L51.3824 23.6404L51.1765 23.6113L51.0001 23.5532H50.7942L50.6177 23.5241L50.4118 23.495H50.2354H50.0295H41.6765Z" fill="#0446F1"/>
</svg>
