<svg width="72" height="28" viewBox="0 0 72 28" fill="none" xmlns="http://www.w3.org/2000/svg">
<path fill-rule="evenodd" clip-rule="evenodd" d="M35.871 6.22222C33.6103 6.22222 31.573 7.16806 30.14 8.6819C30.0018 6.36365 29.1313 4.24048 27.7543 2.53601C30.0515 0.938047 32.8507 0 35.871 0H53.1498H53.9226H54.0015L47.8091 6.13222L47.9002 6.22222H47.6395H44.2613H35.871ZM28.5885 9.33333C28.5885 7.10777 27.8019 5.06417 26.489 3.46024C26.4715 3.4389 26.454 3.41765 26.4364 3.39646C26.1198 3.01666 25.7736 2.66208 25.4011 2.33621C23.7392 0.882314 21.5555 0 19.1637 0H15.708H13.5089H6.13173L0.314159 5.76112L0.779788 6.22222H13.5089H15.708H19.1637C20.8988 6.22222 22.3053 7.61513 22.3053 9.33333C22.3053 10.9506 21.0592 12.2796 19.4659 12.4302C19.3665 12.4396 19.2657 12.4444 19.1637 12.4444H14.1499H13.8358H13.823H13.5089H12.3219H12.265H11.995H10.1228H9.80865H9.73894H9.42478H8.16815V12.5267C3.5571 13.1351 0 17.0451 0 21.7778V28H6.28319V21.7778C6.28319 20.0596 7.68974 18.6667 9.42478 18.6667H9.73894H9.80865H12.265H13.5089H14.1499C14.8193 18.6667 15.4398 18.874 15.9495 19.2273L21.064 28H21.3909H28.3192H28.6461L22.8013 17.9747C22.8313 17.9625 22.8613 17.9502 22.8912 17.9377L22.885 17.9271L22.7615 17.9795L22.7551 17.9651C23.1498 17.8039 23.531 17.6169 23.8966 17.4063C23.9121 17.4412 23.9274 17.4763 23.9426 17.5114C25.7039 16.4997 27.1039 14.9394 27.9041 13.0667H27.8043C28.3087 11.9234 28.5885 10.6607 28.5885 9.33333ZM35.871 28C33.3804 28 31.0399 27.3621 29.0075 26.2422L24.7092 18.8696C26.094 18.0781 27.2882 16.9964 28.2072 15.7083C28.9933 19.1821 32.1263 21.7778 35.871 21.7778H54.0015L47.8091 27.91L47.9002 28H35.871ZM64.7322 28H64.7448H71.9874H72L66.1554 17.9747C66.1852 17.9625 66.2154 17.9502 66.2452 17.9377L66.2389 17.9271L66.1155 17.9795L66.1092 17.9651C66.5936 17.7672 67.058 17.5304 67.4981 17.2586C67.5022 17.2677 67.5063 17.2768 67.5107 17.2859C70.2039 15.643 71.9994 12.6958 71.9994 9.33333C71.9994 4.17869 67.7799 0 62.5746 0H62.5177H56.8629H56.1441L49.8609 6.22222H53.1498H53.464H56.8629H62.5177C64.2528 6.22222 65.6593 7.61513 65.6593 9.33333C65.6593 11.0515 64.2528 12.4444 62.5177 12.4444H57.5041H57.4912H57.1899H56.8629H55.676H55.6631H55.6191H53.4768H53.464H53.1627H53.1498H53.0929H44.2613H43.6553L37.3721 18.6667H53.0929H53.1498H53.1627H55.6191H56.8629H57.5041C58.5288 18.6667 59.439 19.1526 60.0126 19.9045L64.7322 28Z" fill="#0446F1"/>
</svg>
