<svg width="1680" height="1493" viewBox="0 0 1680 1493" fill="none" xmlns="http://www.w3.org/2000/svg">
<g clip-path="url(#clip0_319_352)">
<rect width="1266" height="489" transform="translate(-402 1648.92) rotate(-21.3509)" fill="white" fill-opacity="0.77"/>
<path fill-rule="evenodd" clip-rule="evenodd" d="M225.007 1520.5C187.985 1534.97 160.635 1563.4 146.791 1597.19C129.789 1560.37 102.033 1531.41 68.6452 1512.5C96.1039 1471.8 135.982 1438.62 185.444 1419.29L468.411 1308.67L481.067 1303.73L482.359 1303.22L419.939 1442.61L422.004 1443.49L417.734 1445.16L362.411 1466.78L225.007 1520.5ZM125.526 1617.72C111.375 1581.52 85.4996 1553.32 53.8004 1535.63C53.3786 1535.4 52.9564 1535.16 52.5326 1534.93C44.9342 1530.78 37.009 1527.23 28.8367 1524.31C-7.62287 1511.3 -48.9943 1510.93 -88.1641 1526.24L-144.757 1548.37L-180.771 1562.44L-301.583 1609.67L-360.224 1740.62L-349.667 1745.14L-141.208 1663.65L-105.194 1649.57L-48.6009 1627.45C-20.1864 1616.34 11.7042 1630 22.6292 1657.94C32.9124 1684.25 20.9559 1713.85 -4.17932 1726.49C-5.74792 1727.28 -7.36824 1728.01 -9.03773 1728.66L-91.1465 1760.76L-96.2913 1762.77L-96.5002 1762.85L-101.645 1764.86L-121.083 1772.46L-122.016 1772.82L-126.437 1774.55L-157.097 1786.54L-162.242 1788.55L-163.383 1788.99L-168.528 1791.01L-189.108 1799.05L-188.585 1800.39C-260.229 1839.8 -293.621 1926.17 -263.529 2003.15L-223.966 2104.36L-121.069 2064.14L-160.632 1962.93C-171.557 1934.98 -157.379 1903.32 -128.965 1892.21L-123.82 1890.2L-122.678 1889.76L-82.4524 1874.03L-62.0819 1866.07L-51.5833 1861.97C-40.6212 1857.68 -29.142 1857.08 -18.5484 1859.56L120.99 1969.52L126.344 1967.42L239.806 1923.07L245.159 1920.98L85.6968 1795.33C86.1113 1794.94 86.5233 1794.54 86.9333 1794.15L86.7642 1794.02L85.0759 1795.66L84.8788 1795.47C90.3177 1790.32 95.3719 1784.84 100.02 1779.07C100.496 1779.54 100.97 1780.01 101.441 1780.49C123.852 1752.75 136.859 1718.41 138.057 1682.83L136.421 1683.47C137.412 1661.64 133.966 1639.31 125.526 1617.72ZM363.479 1874.73C322.69 1890.67 280.306 1895.28 239.901 1890.07L122.632 1797.67C140.277 1775.93 152.956 1750.69 159.816 1723.86C194.778 1775.33 262.589 1797.49 323.915 1773.52L620.83 1657.45L558.411 1796.84L560.475 1797.72L363.479 1874.73ZM836.126 1689.97L836.332 1689.88L954.941 1643.52L955.147 1643.44L795.687 1517.79C796.099 1517.4 796.514 1517 796.924 1516.61L796.753 1516.48L795.064 1518.12L794.87 1517.93C801.545 1511.61 807.643 1504.78 813.123 1497.54C813.248 1497.67 813.373 1497.79 813.502 1497.91C847.163 1453.94 857.827 1394.51 836.447 1339.82C803.672 1255.97 708.001 1215.02 622.756 1248.34L621.825 1248.7L529.218 1284.9L517.447 1289.51L454.113 1430.94L507.974 1409.88L513.119 1407.87L568.781 1386.11L661.388 1349.91C689.803 1338.8 721.694 1352.46 732.619 1380.4C743.544 1408.35 729.367 1440.01 700.952 1451.12L618.845 1483.22L618.634 1483.3L613.7 1485.23L608.344 1487.32L588.907 1494.92L588.696 1495L587.976 1495.28L552.893 1509L552.682 1509.08L547.748 1511.01L547.537 1511.09L546.606 1511.45L401.974 1567.99L392.05 1571.87L328.716 1713.3L586.169 1612.66L587.101 1612.3L587.311 1612.22L627.539 1596.49L647.908 1588.53L658.408 1584.42C675.191 1577.86 693.185 1579.94 707.361 1588.5L836.126 1689.97Z" fill="#F3F3F3" fill-opacity="0.69"/>
<rect width="1266" height="489" transform="translate(901 1106.92) rotate(-21.3509)" fill="white" fill-opacity="0.77"/>
<path fill-rule="evenodd" clip-rule="evenodd" d="M1528.01 978.496C1490.99 992.968 1463.63 1021.4 1449.79 1055.19C1432.79 1018.37 1405.03 989.407 1371.65 970.498C1399.1 929.801 1438.98 896.623 1488.44 877.287L1771.41 766.674L1784.07 761.726L1785.36 761.221L1722.94 900.608L1725 901.489L1720.73 903.158L1665.41 924.784L1528.01 978.496ZM1428.53 1075.72C1414.38 1039.52 1388.5 1011.32 1356.8 993.631C1356.38 993.396 1355.96 993.163 1355.53 992.931C1347.93 988.78 1340.01 985.229 1331.84 982.313C1295.38 969.303 1254.01 968.931 1214.84 984.243L1158.24 1006.37L1122.23 1020.44L1001.42 1067.67L942.776 1198.62L953.333 1203.14L1161.79 1121.65L1197.81 1107.57L1254.4 1085.45C1282.81 1074.34 1314.7 1088 1325.63 1115.94C1335.91 1142.25 1323.96 1171.85 1298.82 1184.49C1297.25 1185.28 1295.63 1186.01 1293.96 1186.66L1211.85 1218.76L1206.71 1220.77L1206.5 1220.85L1201.35 1222.86L1181.92 1230.46L1180.98 1230.82L1176.56 1232.55L1145.9 1244.54L1140.76 1246.55L1139.62 1246.99L1134.47 1249.01L1113.89 1257.05L1114.42 1258.39C1042.77 1297.8 1009.38 1384.17 1039.47 1461.15L1079.03 1562.36L1181.93 1522.14L1142.37 1420.93C1131.44 1392.98 1145.62 1361.32 1174.04 1350.21L1179.18 1348.2L1180.32 1347.76L1220.55 1332.03L1240.92 1324.07L1251.42 1319.97C1262.38 1315.68 1273.86 1315.08 1284.45 1317.56L1423.99 1427.52L1429.34 1425.42L1542.81 1381.07L1548.16 1378.98L1388.7 1253.33C1389.11 1252.94 1389.52 1252.54 1389.93 1252.15L1389.76 1252.02L1388.08 1253.66L1387.88 1253.47C1393.32 1248.32 1398.37 1242.84 1403.02 1237.07C1403.5 1237.54 1403.97 1238.01 1404.44 1238.49C1426.85 1210.75 1439.86 1176.41 1441.06 1140.83L1439.42 1141.47C1440.41 1119.64 1436.97 1097.31 1428.53 1075.72ZM1666.48 1332.73C1625.69 1348.67 1583.31 1353.28 1542.9 1348.07L1425.63 1255.67C1443.28 1233.93 1455.96 1208.69 1462.82 1181.86C1497.78 1233.33 1565.59 1255.49 1626.92 1231.52L1923.83 1115.45L1861.41 1254.84L1863.47 1255.72L1666.48 1332.73ZM2139.13 1147.97L2139.33 1147.88L2257.94 1101.52L2258.15 1101.44L2098.69 975.786C2099.1 975.397 2099.51 975.004 2099.92 974.61L2099.75 974.477L2098.06 976.12L2097.87 975.927C2104.54 969.605 2110.64 962.781 2116.12 955.544C2116.25 955.665 2116.37 955.787 2116.5 955.906C2150.16 911.942 2160.83 852.51 2139.45 797.817C2106.67 713.973 2011 673.016 1925.76 706.339L1924.83 706.703L1832.22 742.904L1820.45 747.505L1757.11 888.937L1810.97 867.882L1816.12 865.871L1871.78 844.112L1964.39 807.912C1992.8 796.804 2024.69 810.457 2035.62 838.404C2046.54 866.352 2032.37 898.013 2003.95 909.12L1921.84 941.216L1921.63 941.299L1916.7 943.227L1911.34 945.321L1891.91 952.919L1891.7 953.002L1890.98 953.283L1855.89 966.997L1855.68 967.08L1850.75 969.009L1850.54 969.091L1849.61 969.455L1704.97 1025.99L1695.05 1029.87L1631.72 1171.3L1889.17 1070.66L1890.1 1070.3L1890.31 1070.22L1930.54 1054.49L1950.91 1046.53L1961.41 1042.42C1978.19 1035.86 1996.19 1037.94 2010.36 1046.5L2139.13 1147.97Z" fill="#F3F3F3" fill-opacity="0.69"/>
<rect width="1266" height="489" transform="translate(-95 765.923) rotate(-21.3509)" fill="white" fill-opacity="0.77"/>
<path fill-rule="evenodd" clip-rule="evenodd" d="M532.007 637.496C494.985 651.968 467.635 680.395 453.791 714.193C436.789 677.369 409.033 648.407 375.645 629.498C403.104 588.8 442.982 555.622 492.444 536.287L775.411 425.673L788.067 420.726L789.359 420.221L726.939 559.608L729.004 560.489L724.734 562.158L669.411 583.784L532.007 637.496ZM432.526 734.721C418.375 698.521 392.5 670.316 360.8 652.631C360.379 652.396 359.956 652.163 359.533 651.931C351.934 647.78 344.009 644.229 335.837 641.313C299.377 628.303 258.006 627.931 218.836 643.243L162.243 665.365L126.229 679.443L5.41668 726.67L-53.2238 857.621L-42.6666 862.14L165.792 780.652L201.806 766.574L258.399 744.451C286.814 733.344 318.704 746.996 329.629 774.944C339.912 801.25 327.956 830.845 302.821 843.494C301.252 844.284 299.632 845.007 297.962 845.66L215.854 877.757L210.709 879.768L210.5 879.85L205.355 881.861L185.917 889.459L184.984 889.824L180.563 891.552L149.903 903.537L144.758 905.548L143.617 905.995L138.472 908.006L117.892 916.05L118.415 917.388C46.7708 956.803 13.3788 1043.17 43.4712 1120.15L83.0343 1221.36L185.931 1181.14L146.368 1079.93C135.443 1051.98 149.621 1020.32 178.035 1009.21L183.18 1007.2L184.322 1006.76L224.548 991.032L244.918 983.069L255.417 978.966C266.379 974.68 277.858 974.08 288.452 976.564L427.99 1086.52L433.344 1084.42L546.806 1040.07L552.159 1037.98L392.697 912.326C393.111 911.936 393.523 911.544 393.933 911.15L393.764 911.017L392.076 912.659L391.879 912.467C397.318 907.318 402.372 901.836 407.02 896.069C407.496 896.538 407.97 897.011 408.441 897.485C430.852 869.754 443.859 835.412 445.057 799.827L443.421 800.467C444.412 778.641 440.966 756.312 432.526 734.721ZM670.479 991.726C629.69 1007.67 587.306 1012.28 546.901 1007.07L429.632 914.669C447.277 892.93 459.956 867.69 466.816 840.855C501.778 892.326 569.589 914.491 630.915 890.518L927.83 774.452L865.411 913.838L867.475 914.719L670.479 991.726ZM1143.13 806.965L1143.33 806.885L1261.94 760.519L1262.15 760.439L1102.69 634.786C1103.1 634.397 1103.51 634.004 1103.92 633.61L1103.75 633.477L1102.06 635.12L1101.87 634.926C1108.54 628.605 1114.64 621.781 1120.12 614.543C1120.25 614.665 1120.37 614.787 1120.5 614.906C1154.16 570.942 1164.83 511.51 1143.45 456.817C1110.67 372.973 1015 332.016 929.756 365.339L928.825 365.703L836.218 401.904L824.447 406.505L761.113 547.937L814.974 526.882L820.119 524.871L875.781 503.112L968.388 466.911C996.803 455.804 1028.69 469.456 1039.62 497.404C1050.54 525.352 1036.37 557.012 1007.95 568.12L925.845 600.216L925.634 600.299L920.7 602.227L915.344 604.321L895.907 611.919L895.696 612.002L894.976 612.283L859.893 625.997L859.682 626.08L854.748 628.008L854.537 628.091L853.606 628.455L708.974 684.993L699.05 688.872L635.716 830.304L893.169 729.664L894.101 729.3L894.311 729.217L934.539 713.492L954.908 705.53L965.408 701.425C982.191 694.864 1000.19 696.943 1014.36 705.501L1143.13 806.965Z" fill="#F3F3F3" fill-opacity="0.69"/>
<rect width="1266" height="489" transform="translate(1227 288.923) rotate(-21.3509)" fill="white" fill-opacity="0.77"/>
<path fill-rule="evenodd" clip-rule="evenodd" d="M1854.01 160.496C1816.99 174.968 1789.63 203.395 1775.79 237.193C1758.79 200.369 1731.03 171.407 1697.65 152.498C1725.1 111.801 1764.98 78.6226 1814.44 59.2873L2097.41 -51.3264L2110.07 -56.2739L2111.36 -56.7787L2048.94 82.608L2051 83.4887L2046.73 85.158L1991.41 106.784L1854.01 160.496ZM1754.53 257.721C1740.38 221.521 1714.5 193.316 1682.8 175.631C1682.38 175.396 1681.96 175.163 1681.53 174.931C1673.93 170.78 1666.01 167.229 1657.84 164.313C1621.38 151.303 1580.01 150.931 1540.84 166.243L1484.24 188.365L1448.23 202.444L1327.42 249.67L1268.78 380.621L1279.33 385.14L1487.79 303.652L1523.81 289.574L1580.4 267.451C1608.81 256.344 1640.7 269.996 1651.63 297.944C1661.91 324.25 1649.96 353.845 1624.82 366.494C1623.25 367.284 1621.63 368.007 1619.96 368.66L1537.85 400.757L1532.71 402.768L1532.5 402.85L1527.35 404.861L1507.92 412.459L1506.98 412.824L1502.56 414.552L1471.9 426.537L1466.76 428.549L1465.62 428.995L1460.47 431.006L1439.89 439.051L1440.42 440.388C1368.77 479.803 1335.38 566.173 1365.47 643.154L1405.03 744.362L1507.93 704.139L1468.37 602.931C1457.44 574.983 1471.62 543.322 1500.04 532.215L1505.18 530.203L1506.32 529.757L1546.55 514.033L1566.92 506.07L1577.42 501.966C1588.38 497.68 1599.86 497.08 1610.45 499.564L1749.99 609.517L1755.34 607.424L1868.81 563.071L1874.16 560.978L1714.7 435.327C1715.11 434.936 1715.52 434.544 1715.93 434.15L1715.76 434.017L1714.08 435.659L1713.88 435.467C1719.32 430.318 1724.37 424.836 1729.02 419.069C1729.5 419.539 1729.97 420.011 1730.44 420.486C1752.85 392.754 1765.86 358.412 1767.06 322.827L1765.42 323.467C1766.41 301.641 1762.97 279.312 1754.53 257.721ZM1992.48 514.726C1951.69 530.671 1909.31 535.278 1868.9 530.073L1751.63 437.669C1769.28 415.931 1781.96 390.69 1788.82 363.855C1823.78 415.326 1891.59 437.491 1952.92 413.518L2249.83 297.452L2187.41 436.838L2189.47 437.719L1992.48 514.726ZM2465.13 329.965L2465.33 329.885L2583.94 283.52L2584.15 283.439L2424.69 157.786C2425.1 157.397 2425.51 157.004 2425.92 156.61L2425.75 156.477L2424.06 158.12L2423.87 157.927C2430.54 151.605 2436.64 144.781 2442.12 137.544C2442.25 137.665 2442.37 137.787 2442.5 137.906C2476.16 93.942 2486.83 34.5103 2465.45 -20.1829C2432.67 -104.027 2337 -144.984 2251.76 -111.661L2250.83 -111.297L2158.22 -75.0963L2146.45 -70.4948L2083.11 70.9371L2136.97 49.8823L2142.12 47.8711L2197.78 26.1124L2290.39 -10.0884C2318.8 -21.1961 2350.69 -7.54347 2361.62 20.4043C2372.54 48.3521 2358.37 80.0126 2329.95 91.1203L2247.84 123.216L2247.63 123.299L2242.7 125.227L2237.34 127.321L2217.91 134.919L2217.7 135.002L2216.98 135.283L2181.89 148.997L2181.68 149.08L2176.75 151.009L2176.54 151.091L2175.61 151.455L2030.97 207.993L2021.05 211.872L1957.72 353.304L2215.17 252.664L2216.1 252.3L2216.31 252.217L2256.54 236.492L2276.91 228.53L2287.41 224.425C2304.19 217.865 2322.19 219.943 2336.36 228.501L2465.13 329.965Z" fill="#F3F3F3" fill-opacity="0.69"/>
<rect width="1266" height="489" transform="translate(-95 96.9232) rotate(-21.3509)" fill="white" fill-opacity="0.77"/>
<path fill-rule="evenodd" clip-rule="evenodd" d="M532.007 -31.5041C494.985 -17.0318 467.635 11.3952 453.791 45.1929C436.789 8.36938 409.033 -20.5929 375.645 -39.502C403.104 -80.1996 442.982 -113.378 492.444 -132.713L775.411 -243.327L788.067 -248.274L789.359 -248.779L726.939 -109.392L729.004 -108.511L724.734 -106.842L669.411 -85.2162L532.007 -31.5041ZM432.526 65.7209C418.375 29.5205 392.5 1.31559 360.8 -16.3686C360.379 -16.604 359.956 -16.8374 359.533 -17.069C351.934 -21.2204 344.009 -24.7713 335.837 -27.6872C299.377 -40.6971 258.006 -41.0692 218.836 -25.7574L162.243 -3.6347L126.229 10.4434L5.41668 57.6696L-53.2238 188.621L-42.6666 193.14L165.792 111.652L201.806 97.574L258.399 75.4513C286.814 64.3438 318.704 77.9962 329.629 105.944C339.912 132.25 327.956 161.845 302.821 174.494C301.252 175.284 299.632 176.007 297.962 176.66L215.854 208.757L210.709 210.768L210.5 210.85L205.355 212.861L185.917 220.459L184.984 220.824L180.563 222.552L149.903 234.537L144.758 236.548L143.617 236.995L138.472 239.006L117.892 247.05L118.415 248.388C46.7708 287.803 13.3788 374.173 43.4712 451.154L83.0343 552.362L185.931 512.139L146.368 410.93C135.443 382.983 149.621 351.322 178.035 340.215L183.18 338.203L184.322 337.757L224.548 322.032L244.918 314.069L255.417 309.966C266.379 305.68 277.858 305.08 288.452 307.564L427.99 417.517L433.344 415.424L546.806 371.071L552.159 368.978L392.697 243.326C393.111 242.936 393.523 242.544 393.933 242.15L393.764 242.017L392.076 243.659L391.879 243.467C397.318 238.318 402.372 232.836 407.02 227.069C407.496 227.538 407.97 228.011 408.441 228.485C430.852 200.754 443.859 166.412 445.057 130.827L443.421 131.467C444.412 109.641 440.966 87.3117 432.526 65.7209ZM670.479 322.726C629.69 338.671 587.306 343.278 546.901 338.073L429.632 245.669C447.277 223.93 459.956 198.69 466.816 171.855C501.778 223.326 569.589 245.491 630.915 221.518L927.83 105.452L865.411 244.838L867.475 245.719L670.479 322.726ZM1143.13 137.965L1143.33 137.885L1261.94 91.5195L1262.15 91.4391L1102.69 -34.2138C1103.1 -34.6027 1103.51 -34.9962 1103.92 -35.3902L1103.75 -35.523L1102.06 -33.8805L1101.87 -34.0736C1108.54 -40.3947 1114.64 -47.2187 1120.12 -54.4566C1120.25 -54.335 1120.37 -54.2134 1120.5 -54.0938C1154.16 -98.0581 1164.83 -157.49 1143.45 -212.183C1110.67 -296.027 1015 -336.984 929.756 -303.661L928.825 -303.297L836.218 -267.096L824.447 -262.495L761.113 -121.063L814.974 -142.118L820.119 -144.129L875.781 -165.888L968.388 -202.089C996.803 -213.196 1028.69 -199.544 1039.62 -171.596C1050.54 -143.648 1036.37 -111.988 1007.95 -100.88L925.845 -68.7838L925.634 -68.7014L920.7 -66.7727L915.344 -64.679L895.907 -57.0809L895.696 -56.9984L894.976 -56.7169L859.893 -43.0028L859.682 -42.9203L854.748 -40.9916L854.537 -40.9092L853.606 -40.5451L708.974 15.9925L699.05 19.8721L635.716 161.304L893.169 60.6635L894.101 60.2995L894.311 60.2171L934.539 44.4918L954.908 36.5296L965.408 32.4249C982.191 25.8645 1000.19 27.9426 1014.36 36.5008L1143.13 137.965Z" fill="#F3F3F3" fill-opacity="0.69"/>
</g>
<defs>
<clipPath id="clip0_319_352">
<rect width="1681" height="1493" fill="white" transform="translate(-1)"/>
</clipPath>
</defs>
</svg>
