<?xml version="1.0" encoding="UTF-8"?>
<!DOCTYPE svg PUBLIC "-//W3C//DTD SVG 1.1//EN" "http://www.w3.org/Graphics/SVG/1.1/DTD/svg11.dtd">
<svg xmlns="http://www.w3.org/2000/svg" version="1.1" width="225px" height="224px" style="shape-rendering:geometricPrecision; text-rendering:geometricPrecision; image-rendering:optimizeQuality; fill-rule:evenodd; clip-rule:evenodd" xmlns:xlink="http://www.w3.org/1999/xlink">
<g><path style="opacity:0.471" fill="#f2f3f3" d="M 101.5,-0.5 C 108.167,-0.5 114.833,-0.5 121.5,-0.5C 122.568,0.434475 123.901,0.767809 125.5,0.5C 121.688,1.32382 117.688,1.82382 113.5,2C 117.893,2.01665 122.06,2.84998 126,4.5C 128.737,3.38951 131.571,3.22284 134.5,4C 135.973,4.70956 136.64,5.87623 136.5,7.5C 133.398,7.84598 130.565,7.17931 128,5.5C 127.911,7.11343 128.745,8.2801 130.5,9C 130.167,9.33333 129.833,9.66667 129.5,10C 135.932,11.8864 135.932,13.053 129.5,13.5C 125.833,13.5 122.167,13.5 118.5,13.5C 118.5,17.1667 118.5,20.8333 118.5,24.5C 128.592,24.7179 138.258,26.7179 147.5,30.5C 146.675,31.3857 145.675,31.719 144.5,31.5C 144.44,34.3408 143.774,37.0075 142.5,39.5C 137.78,39.7746 137.446,38.9412 141.5,37C 140.216,36.3162 139.049,36.4829 138,37.5C 137.275,34.6234 137.775,31.9567 139.5,29.5C 137.293,28.3652 134.96,27.6985 132.5,27.5C 131.833,32.8333 131.167,38.1667 130.5,43.5C 130.719,44.675 130.386,45.675 129.5,46.5C 128.935,44.4904 127.935,42.8237 126.5,41.5C 125.334,36.497 125.334,31.497 126.5,26.5C 124.167,26.5 121.833,26.5 119.5,26.5C 119.5,31.5 119.5,36.5 119.5,41.5C 125.167,41.6636 125.5,41.9969 120.5,42.5C 119.833,46.5 119.167,46.5 118.5,42.5C 117.5,42.5 116.5,42.5 115.5,42.5C 115.5,43.5 115.5,44.5 115.5,45.5C 113.857,45.5198 112.524,44.8532 111.5,43.5C 110.808,44.0253 110.308,44.6919 110,45.5C 109.51,44.2068 109.343,42.8734 109.5,41.5C 111.167,41.5 112.833,41.5 114.5,41.5C 114.084,36.5068 113.751,31.5068 113.5,26.5C 111.833,26.5 110.167,26.5 108.5,26.5C 107.252,25.6661 106.585,24.3328 106.5,22.5C 105.606,16.1372 104.606,9.80382 103.5,3.5C 106.572,3.81741 109.572,3.48408 112.5,2.5C 109.221,2.78801 105.721,2.45467 102,1.5C 100.349,2.74241 98.5155,3.57575 96.5,4C 98.2556,4.2022 99.9223,4.7022 101.5,5.5C 100.137,6.89282 99.3036,8.55949 99,10.5C 97.9609,6.77705 96.7942,6.77705 95.5,10.5C 95.3605,8.66298 94.6939,8.32964 93.5,9.5C 95.1613,14.473 96.328,19.473 97,24.5C 94.9696,20.2264 93.4696,15.7264 92.5,11C 92.1501,9.74254 91.4835,9.40921 90.5,10C 92.7007,14.9664 93.8674,20.1331 94,25.5C 92.1917,20.9338 90.6917,16.2671 89.5,11.5C 88.9984,10.479 88.3317,10.3123 87.5,11C 89.3014,15.3923 90.468,19.8923 91,24.5C 88.9208,20.3471 87.4208,16.0138 86.5,11.5C 86.0472,10.5416 85.3805,9.7083 84.5,9C 88.0457,7.4833 91.7124,6.14996 95.5,5C 94.1667,4.66667 92.8333,4.33333 91.5,4C 90.4019,3.23029 90.4019,2.39695 91.5,1.5C 94.9828,0.989877 98.3162,0.32321 101.5,-0.5 Z"/></g>
<g><path style="opacity:0.466" fill="#e3e5e6" d="M 125.5,0.5 C 158.413,5.03444 184.58,20.7011 204,47.5C 204.989,49.9698 206.155,52.3032 207.5,54.5C 207.5,55.1667 207.5,55.8333 207.5,56.5C 206.71,57.7942 205.71,58.9609 204.5,60C 202.221,60.4728 200.221,61.4728 198.5,63C 199.167,63.3333 199.833,63.6667 200.5,64C 199.023,66.1485 197.023,67.4818 194.5,68C 194.311,70.295 192.977,72.295 190.5,74C 188.22,74.2326 186.22,75.066 184.5,76.5C 183.667,75.5 182.833,74.5 182,73.5C 180.062,75.9784 177.895,76.1451 175.5,74C 177.608,73.6401 179.608,72.9734 181.5,72C 184.445,70.3549 187.112,68.3549 189.5,66C 188.711,64.3745 187.711,62.8745 186.5,61.5C 183.833,63.1667 181.167,64.8333 178.5,66.5C 177.019,65.5197 175.685,64.353 174.5,63C 177.463,61.0394 180.129,58.706 182.5,56C 181.667,53.8333 180.167,52.3333 178,51.5C 174.5,55 171,58.5 167.5,62C 167.833,62.3333 168.167,62.6667 168.5,63C 166.846,63.6077 165.179,64.1077 163.5,64.5C 163.5,57.8333 163.5,51.1667 163.5,44.5C 163.38,41.7952 164.38,41.1285 166.5,42.5C 167.478,42.0233 168.311,41.3567 169,40.5C 168.865,38.5753 168.698,36.5753 168.5,34.5C 171.782,23.7761 167.782,18.4427 156.5,18.5C 147.339,17.0492 138.339,15.3826 129.5,13.5C 135.932,13.053 135.932,11.8864 129.5,10C 129.833,9.66667 130.167,9.33333 130.5,9C 128.745,8.2801 127.911,7.11343 128,5.5C 130.565,7.17931 133.398,7.84598 136.5,7.5C 136.64,5.87623 135.973,4.70956 134.5,4C 131.571,3.22284 128.737,3.38951 126,4.5C 122.06,2.84998 117.893,2.01665 113.5,2C 117.688,1.82382 121.688,1.32382 125.5,0.5 Z"/></g>
<g><path style="opacity:0.471" fill="#d1d2d5" d="M 129.5,13.5 C 138.339,15.3826 147.339,17.0492 156.5,18.5C 154.052,19.4731 151.385,19.8064 148.5,19.5C 148.5,21.5 148.5,23.5 148.5,25.5C 148.016,29.8274 148.682,33.8274 150.5,37.5C 148.705,40.4036 146.872,43.4036 145,46.5C 143.989,45.6634 142.822,45.33 141.5,45.5C 141.325,43.3792 141.659,41.3792 142.5,39.5C 143.774,37.0075 144.44,34.3408 144.5,31.5C 145.675,31.719 146.675,31.3857 147.5,30.5C 138.258,26.7179 128.592,24.7179 118.5,24.5C 118.5,20.8333 118.5,17.1667 118.5,13.5C 122.167,13.5 125.833,13.5 129.5,13.5 Z"/></g>
<g><path style="opacity:0.471" fill="#e5e7e8" d="M 91.5,1.5 C 90.4019,2.39695 90.4019,3.23029 91.5,4C 92.8333,4.33333 94.1667,4.66667 95.5,5C 91.7124,6.14996 88.0457,7.4833 84.5,9C 85.3805,9.7083 86.0472,10.5416 86.5,11.5C 85.7611,11.369 85.0944,11.5357 84.5,12C 86.5016,15.9957 87.6683,20.1623 88,24.5C 86.346,20.2114 84.6794,15.878 83,11.5C 83.462,15.8787 84.1287,20.2121 85,24.5C 83.5906,20.6837 81.924,17.0171 80,13.5C 79.7167,16.7423 78.8834,17.0756 77.5,14.5C 77.1667,14.8333 76.8333,15.1667 76.5,15.5C 78.6313,19.7308 80.1313,24.0641 81,28.5C 78.8444,24.1889 76.6778,19.8556 74.5,15.5C 74.1667,15.8333 73.8333,16.1667 73.5,16.5C 75.9775,21.2878 78.3109,26.1211 80.5,31C 79.6683,31.6877 79.0016,31.521 78.5,30.5C 76.5321,25.8928 74.1987,21.5595 71.5,17.5C 71.1667,17.6667 70.8333,17.8333 70.5,18C 74.328,26.4974 73.828,26.664 69,18.5C 69.1953,20.1261 69.1953,21.7928 69,23.5C 68.059,21.9386 66.8924,20.6053 65.5,19.5C 63.8333,21.1667 62.1667,22.8333 60.5,24.5C 62.5055,28.5134 65.0055,32.1801 68,35.5C 68.6917,36.4368 68.525,37.1034 67.5,37.5C 66.6014,38.9943 66.9347,40.4943 68.5,42C 61.9589,47.0403 56.2922,52.8736 51.5,59.5C 47.3141,58.0921 42.9808,57.4255 38.5,57.5C 36.2359,55.6863 33.9025,53.853 31.5,52C 34.8333,53.3333 38.1667,54.6667 41.5,56C 39.0888,54.0445 36.5888,52.2112 34,50.5C 34.0551,48.8917 34.8884,47.5584 36.5,46.5C 39.3525,48.9102 42.3525,50.7436 45.5,52C 43.0934,49.7152 40.5934,47.5486 38,45.5C 37.3333,44.8333 37.3333,44.1667 38,43.5C 42,46.8333 46,50.1667 50,53.5C 50.5,52.3333 51.3333,51.5 52.5,51C 48.8333,47.3333 45.1667,43.6667 41.5,40C 42.1667,39.3333 42.8333,39.3333 43.5,40C 46.5,43 49.5,46 52.5,49C 53.1667,49.6667 53.8333,49.6667 54.5,49C 51,45.5 47.5,42 44,38.5C 44.0551,36.8917 44.8884,35.5584 46.5,34.5C 50.1235,38.6251 53.9568,42.6251 58,46.5C 58.1667,46.1667 58.3333,45.8333 58.5,45.5C 54.7899,41.7921 51.4566,37.7921 48.5,33.5C 51.1275,27.9575 53.9608,27.6242 57,32.5C 57.1626,30.6133 56.3293,29.1133 54.5,28C 56.4206,26.7592 56.754,25.2592 55.5,23.5C 52.488,26.4848 49.1547,28.6514 45.5,30C 46.1667,29.3333 46.8333,28.6667 47.5,28C 45.2429,26.5502 42.9095,25.3835 40.5,24.5C 55.5117,12.8127 72.5117,5.14605 91.5,1.5 Z"/></g>
<g><path style="opacity:0.471" fill="#e7e9ea" d="M 108.5,26.5 C 108.246,31.7403 108.079,37.0736 108,42.5C 106.493,43.5046 105.327,44.838 104.5,46.5C 103.476,45.1468 102.143,44.4802 100.5,44.5C 100.404,49.1103 99.4041,49.4436 97.5,45.5C 95.7826,46.6685 95.1159,48.3352 95.5,50.5C 102.008,50.5915 102.008,51.2582 95.5,52.5C 94.7755,50.2152 93.4422,48.3819 91.5,47C 92.3567,46.3109 93.0233,45.4776 93.5,44.5C 92.1595,40.8098 90.8262,37.1431 89.5,33.5C 90.7441,30.7499 92.5774,28.4166 95,26.5C 97.0217,27.9909 98.6883,27.6576 100,25.5C 100.889,26.8882 101.389,26.7215 101.5,25C 100.721,21.1584 99.8873,17.3251 99,13.5C 98.8922,17.1765 98.8922,20.8432 99,24.5C 98.0187,19.7521 96.8521,15.0855 95.5,10.5C 96.7942,6.77705 97.9609,6.77705 99,10.5C 99.3036,8.55949 100.137,6.89282 101.5,5.5C 99.9223,4.7022 98.2556,4.2022 96.5,4C 98.5155,3.57575 100.349,2.74241 102,1.5C 105.721,2.45467 109.221,2.78801 112.5,2.5C 109.572,3.48408 106.572,3.81741 103.5,3.5C 104.606,9.80382 105.606,16.1372 106.5,22.5C 106.585,24.3328 107.252,25.6661 108.5,26.5 Z"/></g>
<g><path style="opacity:1" fill="#3f4040" d="M 156.5,18.5 C 167.782,18.4427 171.782,23.7761 168.5,34.5C 168.509,32.6916 168.009,31.0249 167,29.5C 166.433,32.7998 164.933,32.9665 162.5,30C 163.167,29.6667 163.833,29.3333 164.5,29C 160.402,27.8531 156.902,28.6864 154,31.5C 153.289,29.6332 153.789,28.1332 155.5,27C 158.76,26.2165 161.927,26.3832 165,27.5C 165.5,26.3333 166.333,25.5 167.5,25C 167.043,24.586 166.709,24.086 166.5,23.5C 160.872,22.5046 155.206,22.1712 149.5,22.5C 149.737,23.791 149.404,24.791 148.5,25.5C 148.5,23.5 148.5,21.5 148.5,19.5C 151.385,19.8064 154.052,19.4731 156.5,18.5 Z"/></g>
<g><path style="opacity:0.471" fill="#d1d2d6" d="M 89.5,33.5 C 90.8262,37.1431 92.1595,40.8098 93.5,44.5C 93.0233,45.4776 92.3567,46.3109 91.5,47C 93.4422,48.3819 94.7755,50.2152 95.5,52.5C 87.2813,51.3904 78.948,51.3904 70.5,52.5C 70.1667,52.5 69.8333,52.5 69.5,52.5C 67.396,52.2011 65.396,52.5344 63.5,53.5C 64.3094,55.0709 64.6427,56.7376 64.5,58.5C 60.1756,58.9272 55.8422,59.2605 51.5,59.5C 56.2922,52.8736 61.9589,47.0403 68.5,42C 66.9347,40.4943 66.6014,38.9943 67.5,37.5C 68.4057,38.9649 69.739,39.9649 71.5,40.5C 76.5095,36.9934 81.8428,33.9934 87.5,31.5C 88.1818,32.2427 88.8485,32.9094 89.5,33.5 Z"/></g>
<g><path style="opacity:1" fill="#252626" d="M 168.5,34.5 C 168.698,36.5753 168.865,38.5753 169,40.5C 168.311,41.3567 167.478,42.0233 166.5,42.5C 164.38,41.1285 163.38,41.7952 163.5,44.5C 161.824,43.8166 161.157,42.4832 161.5,40.5C 159.61,40.2965 158.11,40.9632 157,42.5C 156.722,41.5842 156.222,40.9175 155.5,40.5C 153.566,39.8897 151.899,38.8897 150.5,37.5C 148.682,33.8274 148.016,29.8274 148.5,25.5C 149.404,24.791 149.737,23.791 149.5,22.5C 155.206,22.1712 160.872,22.5046 166.5,23.5C 166.709,24.086 167.043,24.586 167.5,25C 166.333,25.5 165.5,26.3333 165,27.5C 161.927,26.3832 158.76,26.2165 155.5,27C 153.789,28.1332 153.289,29.6332 154,31.5C 156.902,28.6864 160.402,27.8531 164.5,29C 163.833,29.3333 163.167,29.6667 162.5,30C 164.933,32.9665 166.433,32.7998 167,29.5C 168.009,31.0249 168.509,32.6916 168.5,34.5 Z"/></g>
<g><path style="opacity:0.471" fill="#dee0e1" d="M 95.5,10.5 C 96.8521,15.0855 98.0187,19.7521 99,24.5C 98.8922,20.8432 98.8922,17.1765 99,13.5C 99.8873,17.3251 100.721,21.1584 101.5,25C 101.389,26.7215 100.889,26.8882 100,25.5C 98.6883,27.6576 97.0217,27.9909 95,26.5C 92.5774,28.4166 90.7441,30.7499 89.5,33.5C 88.8485,32.9094 88.1818,32.2427 87.5,31.5C 81.8428,33.9934 76.5095,36.9934 71.5,40.5C 69.739,39.9649 68.4057,38.9649 67.5,37.5C 68.525,37.1034 68.6917,36.4368 68,35.5C 65.0055,32.1801 62.5055,28.5134 60.5,24.5C 62.1667,22.8333 63.8333,21.1667 65.5,19.5C 66.8924,20.6053 68.059,21.9386 69,23.5C 69.1953,21.7928 69.1953,20.1261 69,18.5C 73.828,26.664 74.328,26.4974 70.5,18C 70.8333,17.8333 71.1667,17.6667 71.5,17.5C 74.1987,21.5595 76.5321,25.8928 78.5,30.5C 79.0016,31.521 79.6683,31.6877 80.5,31C 78.3109,26.1211 75.9775,21.2878 73.5,16.5C 73.8333,16.1667 74.1667,15.8333 74.5,15.5C 76.6778,19.8556 78.8444,24.1889 81,28.5C 80.1313,24.0641 78.6313,19.7308 76.5,15.5C 76.8333,15.1667 77.1667,14.8333 77.5,14.5C 78.8834,17.0756 79.7167,16.7423 80,13.5C 81.924,17.0171 83.5906,20.6837 85,24.5C 84.1287,20.2121 83.462,15.8787 83,11.5C 84.6794,15.878 86.346,20.2114 88,24.5C 87.6683,20.1623 86.5016,15.9957 84.5,12C 85.0944,11.5357 85.7611,11.369 86.5,11.5C 87.4208,16.0138 88.9208,20.3471 91,24.5C 90.468,19.8923 89.3014,15.3923 87.5,11C 88.3317,10.3123 88.9984,10.479 89.5,11.5C 90.6917,16.2671 92.1917,20.9338 94,25.5C 93.8674,20.1331 92.7007,14.9664 90.5,10C 91.4835,9.40921 92.1501,9.74254 92.5,11C 93.4696,15.7264 94.9696,20.2264 97,24.5C 96.328,19.473 95.1613,14.473 93.5,9.5C 94.6939,8.32964 95.3605,8.66298 95.5,10.5 Z"/></g>
<g><path style="opacity:1" fill="#505255" d="M 155.5,40.5 C 156.222,40.9175 156.722,41.5842 157,42.5C 158.11,40.9632 159.61,40.2965 161.5,40.5C 161.157,42.4832 161.824,43.8166 163.5,44.5C 163.5,51.1667 163.5,57.8333 163.5,64.5C 163.5,68.8333 163.5,73.1667 163.5,77.5C 160.673,76.8916 158.007,75.8916 155.5,74.5C 155.5,63.1667 155.5,51.8333 155.5,40.5 Z"/></g>
<g><path style="opacity:0.471" fill="#eceeee" d="M 38.5,57.5 C 35.8333,57.8333 33.1667,58.1667 30.5,58.5C 30.5,59.8333 30.5,61.1667 30.5,62.5C 27.6729,60.0612 24.5063,58.0612 21,56.5C 19.3651,56.8777 17.8651,57.5444 16.5,58.5C 16.9202,60.326 16.9202,62.326 16.5,64.5C 19.2919,64.5479 21.1253,63.2146 22,60.5C 21.7921,63.353 20.7921,66.0197 19,68.5C 18.5172,67.552 18.3505,66.552 18.5,65.5C 17.5,65.5 16.5,65.5 15.5,65.5C 13.8008,65.6602 12.1341,65.4935 10.5,65C 11.3802,63.6439 11.7135,62.1439 11.5,60.5C 18.3096,46.2231 27.9762,34.2231 40.5,24.5C 42.9095,25.3835 45.2429,26.5502 47.5,28C 46.8333,28.6667 46.1667,29.3333 45.5,30C 49.1547,28.6514 52.488,26.4848 55.5,23.5C 56.754,25.2592 56.4206,26.7592 54.5,28C 56.3293,29.1133 57.1626,30.6133 57,32.5C 53.9608,27.6242 51.1275,27.9575 48.5,33.5C 51.4566,37.7921 54.7899,41.7921 58.5,45.5C 58.3333,45.8333 58.1667,46.1667 58,46.5C 53.9568,42.6251 50.1235,38.6251 46.5,34.5C 44.8884,35.5584 44.0551,36.8917 44,38.5C 47.5,42 51,45.5 54.5,49C 53.8333,49.6667 53.1667,49.6667 52.5,49C 49.5,46 46.5,43 43.5,40C 42.8333,39.3333 42.1667,39.3333 41.5,40C 45.1667,43.6667 48.8333,47.3333 52.5,51C 51.3333,51.5 50.5,52.3333 50,53.5C 46,50.1667 42,46.8333 38,43.5C 37.3333,44.1667 37.3333,44.8333 38,45.5C 40.5934,47.5486 43.0934,49.7152 45.5,52C 42.3525,50.7436 39.3525,48.9102 36.5,46.5C 34.8884,47.5584 34.0551,48.8917 34,50.5C 36.5888,52.2112 39.0888,54.0445 41.5,56C 38.1667,54.6667 34.8333,53.3333 31.5,52C 33.9025,53.853 36.2359,55.6863 38.5,57.5 Z"/></g>
<g><path style="opacity:0.471" fill="#dadcde" d="M 108.5,26.5 C 110.167,26.5 111.833,26.5 113.5,26.5C 113.751,31.5068 114.084,36.5068 114.5,41.5C 112.833,41.5 111.167,41.5 109.5,41.5C 109.343,42.8734 109.51,44.2068 110,45.5C 110.308,44.6919 110.808,44.0253 111.5,43.5C 112.524,44.8532 113.857,45.5198 115.5,45.5C 115.5,44.5 115.5,43.5 115.5,42.5C 116.5,42.5 117.5,42.5 118.5,42.5C 119.167,46.5 119.833,46.5 120.5,42.5C 125.5,41.9969 125.167,41.6636 119.5,41.5C 119.5,36.5 119.5,31.5 119.5,26.5C 121.833,26.5 124.167,26.5 126.5,26.5C 125.334,31.497 125.334,36.497 126.5,41.5C 127.935,42.8237 128.935,44.4904 129.5,46.5C 130.386,45.675 130.719,44.675 130.5,43.5C 132.176,44.1834 132.843,45.5168 132.5,47.5C 134.638,47.297 136.305,46.297 137.5,44.5C 138.731,45.6507 138.731,46.8173 137.5,48C 139.135,48.5396 140.468,48.0396 141.5,46.5C 142.244,47.9905 142.91,49.4905 143.5,51C 139.542,50.2445 135.542,49.2445 131.5,48C 126.115,47.7861 120.781,47.2861 115.5,46.5C 113.885,47.154 112.218,47.654 110.5,48C 123.276,47.5336 135.276,50.2003 146.5,56C 146,56.1667 145.5,56.3333 145,56.5C 128.992,49.3237 112.826,48.657 96.5,54.5C 95.6618,54.1583 95.3284,53.4916 95.5,52.5C 102.008,51.2582 102.008,50.5915 95.5,50.5C 95.1159,48.3352 95.7826,46.6685 97.5,45.5C 99.4041,49.4436 100.404,49.1103 100.5,44.5C 102.143,44.4802 103.476,45.1468 104.5,46.5C 105.327,44.838 106.493,43.5046 108,42.5C 108.079,37.0736 108.246,31.7403 108.5,26.5 Z"/></g>
<g><path style="opacity:1" fill="#727679" d="M 69.5,52.5 C 69.5,54.5 69.5,56.5 69.5,58.5C 67.8333,58.5 66.1667,58.5 64.5,58.5C 64.6427,56.7376 64.3094,55.0709 63.5,53.5C 65.396,52.5344 67.396,52.2011 69.5,52.5 Z"/></g>
<g><path style="opacity:0.157" fill="#69696c" d="M 209.5,57.5 C 208.833,57.1667 208.167,56.8333 207.5,56.5C 207.5,55.8333 207.5,55.1667 207.5,54.5C 208.117,54.6107 208.617,54.944 209,55.5C 210.353,54.3147 211.52,52.9814 212.5,51.5C 212.833,51.8333 213.167,52.1667 213.5,52.5C 212.143,54.1856 210.81,55.8523 209.5,57.5 Z"/></g>
<g><path style="opacity:0.471" fill="#e9ebec" d="M 142.5,39.5 C 141.659,41.3792 141.325,43.3792 141.5,45.5C 142.822,45.33 143.989,45.6634 145,46.5C 146.872,43.4036 148.705,40.4036 150.5,37.5C 151.899,38.8897 153.566,39.8897 155.5,40.5C 155.5,51.8333 155.5,63.1667 155.5,74.5C 135.85,67.6739 116.184,61.0072 96.5,54.5C 112.826,48.657 128.992,49.3237 145,56.5C 145.5,56.3333 146,56.1667 146.5,56C 135.276,50.2003 123.276,47.5336 110.5,48C 112.218,47.654 113.885,47.154 115.5,46.5C 120.781,47.2861 126.115,47.7861 131.5,48C 135.542,49.2445 139.542,50.2445 143.5,51C 142.91,49.4905 142.244,47.9905 141.5,46.5C 140.468,48.0396 139.135,48.5396 137.5,48C 138.731,46.8173 138.731,45.6507 137.5,44.5C 136.305,46.297 134.638,47.297 132.5,47.5C 132.843,45.5168 132.176,44.1834 130.5,43.5C 131.167,38.1667 131.833,32.8333 132.5,27.5C 134.96,27.6985 137.293,28.3652 139.5,29.5C 137.775,31.9567 137.275,34.6234 138,37.5C 139.049,36.4829 140.216,36.3162 141.5,37C 137.446,38.9412 137.78,39.7746 142.5,39.5 Z"/></g>
<g><path style="opacity:1" fill="#5a5d5e" d="M 69.5,52.5 C 69.8333,52.5 70.1667,52.5 70.5,52.5C 70.5,56.5 70.5,60.5 70.5,64.5C 68.8333,64.5 67.1667,64.5 65.5,64.5C 61.6948,63.7333 57.8615,63.0666 54,62.5C 51.6591,62.8295 49.4924,63.4962 47.5,64.5C 41.4309,66.2618 35.7643,65.5952 30.5,62.5C 30.5,61.1667 30.5,59.8333 30.5,58.5C 33.1667,58.1667 35.8333,57.8333 38.5,57.5C 42.9808,57.4255 47.3141,58.0921 51.5,59.5C 55.8422,59.2605 60.1756,58.9272 64.5,58.5C 66.1667,58.5 67.8333,58.5 69.5,58.5C 69.5,56.5 69.5,54.5 69.5,52.5 Z"/></g>
<g><path style="opacity:0.471" fill="#d1d2d5" d="M 65.5,64.5 C 62.068,68.3643 59.4013,72.6977 57.5,77.5C 53.647,83.1932 51.147,89.5266 50,96.5C 49.1056,101.377 49.2723,103.044 50.5,101.5C 51.8333,101.5 53.1667,101.5 54.5,101.5C 55.6772,103.103 55.5106,104.436 54,105.5C 53.6667,105.167 53.3333,104.833 53,104.5C 52.6964,106.441 51.8631,108.107 50.5,109.5C 51.8754,111.163 51.542,112.497 49.5,113.5C 50.1667,114.167 50.8333,114.833 51.5,115.5C 50.3473,116.687 50.3473,117.687 51.5,118.5C 50.6586,120.379 50.3253,122.379 50.5,124.5C 49.7784,124.918 49.2784,125.584 49,126.5C 48.6667,126.167 48.3333,125.833 48,125.5C 44.6647,127.585 41.1647,129.252 37.5,130.5C 37.7373,131.791 37.404,132.791 36.5,133.5C 36.8432,131.517 36.1765,130.183 34.5,129.5C 34.5,129.167 34.5,128.833 34.5,128.5C 34.4209,118.052 34.5876,107.385 35,96.5C 35.1862,93.9644 35.6862,91.631 36.5,89.5C 37.2852,87.6264 37.9518,85.6264 38.5,83.5C 40.182,76.5017 43.182,70.1684 47.5,64.5C 49.4924,63.4962 51.6591,62.8295 54,62.5C 57.8615,63.0666 61.6948,63.7333 65.5,64.5 Z"/></g>
<g><path style="opacity:0.471" fill="#dbdcde" d="M 207.5,56.5 C 208.167,56.8333 208.833,57.1667 209.5,57.5C 212.37,62.575 214.703,67.9084 216.5,73.5C 211.764,76.4811 206.597,78.8145 201,80.5C 198.568,79.2122 197.068,77.7122 196.5,76C 198.001,74.7485 199.668,73.7485 201.5,73C 199.433,72.4644 197.599,72.9644 196,74.5C 196.077,73.2624 195.911,72.2624 195.5,71.5C 194.692,71.8076 194.025,72.3076 193.5,73C 195.245,74.692 195.578,76.5253 194.5,78.5C 189.99,80.257 185.657,82.257 181.5,84.5C 181.768,82.901 181.434,81.5676 180.5,80.5C 176.796,74.6885 172.296,74.0219 167,78.5C 165.862,78.0109 164.695,77.6775 163.5,77.5C 163.5,73.1667 163.5,68.8333 163.5,64.5C 165.179,64.1077 166.846,63.6077 168.5,63C 168.167,62.6667 167.833,62.3333 167.5,62C 171,58.5 174.5,55 178,51.5C 180.167,52.3333 181.667,53.8333 182.5,56C 180.129,58.706 177.463,61.0394 174.5,63C 175.685,64.353 177.019,65.5197 178.5,66.5C 181.167,64.8333 183.833,63.1667 186.5,61.5C 187.711,62.8745 188.711,64.3745 189.5,66C 187.112,68.3549 184.445,70.3549 181.5,72C 179.608,72.9734 177.608,73.6401 175.5,74C 177.895,76.1451 180.062,75.9784 182,73.5C 182.833,74.5 183.667,75.5 184.5,76.5C 186.22,75.066 188.22,74.2326 190.5,74C 192.977,72.295 194.311,70.295 194.5,68C 197.023,67.4818 199.023,66.1485 200.5,64C 199.833,63.6667 199.167,63.3333 198.5,63C 200.221,61.4728 202.221,60.4728 204.5,60C 205.71,58.9609 206.71,57.7942 207.5,56.5 Z"/></g>
<g><path style="opacity:0.471" fill="#dcdee0" d="M 104.5,65.5 C 110.027,68.2031 115.694,70.5365 121.5,72.5C 120.069,72.8807 119.236,73.8807 119,75.5C 118.667,74.8333 118.333,74.1667 118,73.5C 117.29,74.9733 116.124,75.6399 114.5,75.5C 114.649,74.448 114.483,73.448 114,72.5C 112,77.8333 110,77.8333 108,72.5C 107.529,74.2464 106.862,75.913 106,77.5C 104.913,75.0684 104.413,75.4017 104.5,78.5C 103.325,78.281 102.325,78.6143 101.5,79.5C 101.833,79.8333 102.167,80.1667 102.5,80.5C 108.255,77.5552 114.255,76.5552 120.5,77.5C 115.029,78.0794 109.696,79.2461 104.5,81C 103.057,82.0672 101.724,83.2338 100.5,84.5C 99.7189,83.2713 99.2189,81.938 99,80.5C 96.6042,82.3373 94.4375,84.3373 92.5,86.5C 92.2456,79.5785 88.5789,75.9119 81.5,75.5C 84.0774,71.7543 87.4107,68.921 91.5,67C 84.6124,65.9412 79.2791,68.4412 75.5,74.5C 76.3569,75.4252 77.3569,76.0919 78.5,76.5C 78.3146,78.1958 77.4813,79.5291 76,80.5C 75.1849,85.3522 75.3516,90.0189 76.5,94.5C 76.5,94.8333 76.5,95.1667 76.5,95.5C 76.719,96.675 76.3857,97.675 75.5,98.5C 74.135,97.1931 72.8016,97.1931 71.5,98.5C 68.6146,98.0038 65.6146,97.6704 62.5,97.5C 60.07,99.3817 57.4033,100.715 54.5,101.5C 53.1667,101.5 51.8333,101.5 50.5,101.5C 49.2723,103.044 49.1056,101.377 50,96.5C 51.147,89.5266 53.647,83.1932 57.5,77.5C 58.8221,77.33 59.9887,77.6634 61,78.5C 62.6279,77.1813 62.4613,75.8479 60.5,74.5C 61.6507,73.269 62.8173,73.269 64,74.5C 63.9536,72.6874 64.1203,71.0207 64.5,69.5C 65.6721,69.9186 66.6721,70.5853 67.5,71.5C 63.236,76.9343 59.9026,82.9343 57.5,89.5C 58.0016,90.521 58.6683,90.6877 59.5,90C 63.367,81.0915 68.367,72.9248 74.5,65.5C 75.8333,65.5 77.1667,65.5 78.5,65.5C 84.8482,66.0272 91.0149,65.3605 97,63.5C 99.3187,64.8713 101.819,65.5379 104.5,65.5 Z"/></g>
<g><path style="opacity:0.471" fill="#eceeef" d="M 30.5,62.5 C 35.7643,65.5952 41.4309,66.2618 47.5,64.5C 43.182,70.1684 40.182,76.5017 38.5,83.5C 28.0133,80.8378 17.68,77.6711 7.5,74C 11.3868,72.2809 14.0534,69.4476 15.5,65.5C 16.5,65.5 17.5,65.5 18.5,65.5C 18.3505,66.552 18.5172,67.552 19,68.5C 20.7921,66.0197 21.7921,63.353 22,60.5C 21.1253,63.2146 19.2919,64.5479 16.5,64.5C 16.9202,62.326 16.9202,60.326 16.5,58.5C 17.8651,57.5444 19.3651,56.8777 21,56.5C 24.5063,58.0612 27.6729,60.0612 30.5,62.5 Z"/></g>
<g><path style="opacity:1" fill="#2e58a4" d="M 95.5,52.5 C 95.3284,53.4916 95.6618,54.1583 96.5,54.5C 116.184,61.0072 135.85,67.6739 155.5,74.5C 158.007,75.8916 160.673,76.8916 163.5,77.5C 164.695,77.6775 165.862,78.0109 167,78.5C 172.296,74.0219 176.796,74.6885 180.5,80.5C 179.302,83.0623 177.969,85.5623 176.5,88C 172.019,88.122 167.685,87.2887 163.5,85.5C 160.673,85.4162 158.006,84.7496 155.5,83.5C 147.421,81.0294 139.421,78.3627 131.5,75.5C 128.275,74.193 124.941,73.193 121.5,72.5C 115.694,70.5365 110.027,68.2031 104.5,65.5C 103.942,64.2101 102.942,63.3768 101.5,63C 97.7279,62.594 94.0613,61.7607 90.5,60.5C 88.6951,61.472 87.0284,62.6387 85.5,64C 83.2305,64.7581 81.0639,64.5914 79,63.5C 78.5357,64.0944 78.369,64.7611 78.5,65.5C 77.1667,65.5 75.8333,65.5 74.5,65.5C 72.901,65.7678 71.5676,65.4345 70.5,64.5C 70.5,60.5 70.5,56.5 70.5,52.5C 78.948,51.3904 87.2813,51.3904 95.5,52.5 Z"/></g>
<g><path style="opacity:1" fill="#1f2c54" d="M 104.5,65.5 C 101.819,65.5379 99.3187,64.8713 97,63.5C 91.0149,65.3605 84.8482,66.0272 78.5,65.5C 78.369,64.7611 78.5357,64.0944 79,63.5C 81.0639,64.5914 83.2305,64.7581 85.5,64C 87.0284,62.6387 88.6951,61.472 90.5,60.5C 94.0613,61.7607 97.7279,62.594 101.5,63C 102.942,63.3768 103.942,64.2101 104.5,65.5 Z"/></g>
<g><path style="opacity:0.471" fill="#f2f5f5" d="M 81.5,75.5 C 80.609,76.1098 79.609,76.4431 78.5,76.5C 77.3569,76.0919 76.3569,75.4252 75.5,74.5C 79.2791,68.4412 84.6124,65.9412 91.5,67C 87.4107,68.921 84.0774,71.7543 81.5,75.5 Z"/></g>
<g><path style="opacity:0.471" fill="#fafbfb" d="M 121.5,72.5 C 124.941,73.193 128.275,74.193 131.5,75.5C 130.14,79.1673 128.14,79.5006 125.5,76.5C 124.614,77.325 124.281,78.325 124.5,79.5C 128.059,79.4081 131.392,80.2415 134.5,82C 135.38,83.3561 135.714,84.8561 135.5,86.5C 125.319,86.1726 115.319,86.506 105.5,87.5C 100.968,87.8182 96.6344,87.4849 92.5,86.5C 94.4375,84.3373 96.6042,82.3373 99,80.5C 99.2189,81.938 99.7189,83.2713 100.5,84.5C 101.724,83.2338 103.057,82.0672 104.5,81C 109.696,79.2461 115.029,78.0794 120.5,77.5C 114.255,76.5552 108.255,77.5552 102.5,80.5C 102.167,80.1667 101.833,79.8333 101.5,79.5C 102.325,78.6143 103.325,78.281 104.5,78.5C 104.413,75.4017 104.913,75.0684 106,77.5C 106.862,75.913 107.529,74.2464 108,72.5C 110,77.8333 112,77.8333 114,72.5C 114.483,73.448 114.649,74.448 114.5,75.5C 116.124,75.6399 117.29,74.9733 118,73.5C 118.333,74.1667 118.667,74.8333 119,75.5C 119.236,73.8807 120.069,72.8807 121.5,72.5 Z"/></g>
<g><path style="opacity:0.471" fill="#f0f2f3" d="M 65.5,64.5 C 67.1667,64.5 68.8333,64.5 70.5,64.5C 71.5676,65.4345 72.901,65.7678 74.5,65.5C 68.367,72.9248 63.367,81.0915 59.5,90C 58.6683,90.6877 58.0016,90.521 57.5,89.5C 59.9026,82.9343 63.236,76.9343 67.5,71.5C 66.6721,70.5853 65.6721,69.9186 64.5,69.5C 64.1203,71.0207 63.9536,72.6874 64,74.5C 62.8173,73.269 61.6507,73.269 60.5,74.5C 62.4613,75.8479 62.6279,77.1813 61,78.5C 59.9887,77.6634 58.8221,77.33 57.5,77.5C 59.4013,72.6977 62.068,68.3643 65.5,64.5 Z"/></g>
<g><path style="opacity:0.471" fill="#d4d6d8" d="M 11.5,60.5 C 11.7135,62.1439 11.3802,63.6439 10.5,65C 12.1341,65.4935 13.8008,65.6602 15.5,65.5C 14.0534,69.4476 11.3868,72.2809 7.5,74C 17.68,77.6711 28.0133,80.8378 38.5,83.5C 37.9518,85.6264 37.2852,87.6264 36.5,89.5C 36.5,87.8333 36.5,86.1667 36.5,84.5C 35.1667,84.5 33.8333,84.5 32.5,84.5C 29.2177,98.7253 28.7177,113.059 31,127.5C 32.0113,128.337 33.1779,128.67 34.5,128.5C 34.5,128.833 34.5,129.167 34.5,129.5C 24.5355,131.824 14.5355,134.157 4.5,136.5C 7.13065,138.005 6.79731,138.671 3.5,138.5C 3.5,139.5 3.5,140.5 3.5,141.5C 2.62949,138.997 1.96282,136.33 1.5,133.5C 2.5774,134.018 3.74407,134.352 5,134.5C 11.367,132.472 17.867,131.139 24.5,130.5C 23.7974,121.851 23.464,113.185 23.5,104.5C 24.317,96.7477 25.6504,89.081 27.5,81.5C 20.4475,79.9867 13.4475,78.32 6.5,76.5C 6.91176,78.9726 5.91176,80.3059 3.5,80.5C 5.20855,73.3586 7.87521,66.692 11.5,60.5 Z"/></g>
<g><path style="opacity:0.471" fill="#e2e5ea" d="M 131.5,75.5 C 139.421,78.3627 147.421,81.0294 155.5,83.5C 155.5,84.8333 155.5,86.1667 155.5,87.5C 154.167,87.5 152.833,87.5 151.5,87.5C 150.25,87.5774 149.417,88.244 149,89.5C 143.746,88.1931 138.246,87.5264 132.5,87.5C 126.754,87.5264 121.254,88.1931 116,89.5C 113.333,86.8333 110.667,86.8333 108,89.5C 107.583,88.244 106.75,87.5774 105.5,87.5C 115.319,86.506 125.319,86.1726 135.5,86.5C 135.714,84.8561 135.38,83.3561 134.5,82C 131.392,80.2415 128.059,79.4081 124.5,79.5C 124.281,78.325 124.614,77.325 125.5,76.5C 128.14,79.5006 130.14,79.1673 131.5,75.5 Z"/></g>
<g><path style="opacity:1" fill="#40444a" d="M 155.5,83.5 C 158.006,84.7496 160.673,85.4162 163.5,85.5C 161.365,87.369 158.698,88.0356 155.5,87.5C 155.5,86.1667 155.5,84.8333 155.5,83.5 Z"/></g>
<g><path style="opacity:1" fill="#2855a4" d="M 81.5,75.5 C 88.5789,75.9119 92.2456,79.5785 92.5,86.5C 96.6344,87.4849 100.968,87.8182 105.5,87.5C 106.75,87.5774 107.583,88.244 108,89.5C 110.667,86.8333 113.333,86.8333 116,89.5C 121.254,88.1931 126.754,87.5264 132.5,87.5C 138.246,87.5264 143.746,88.1931 149,89.5C 149.417,88.244 150.25,87.5774 151.5,87.5C 155.552,87.9691 159.552,88.9691 163.5,90.5C 164.167,89.8333 164.833,89.1667 165.5,88.5C 167.444,89.1892 169.444,89.6892 171.5,90C 169.026,90.1129 167.026,91.1129 165.5,93C 160.067,92.8816 155.067,93.7149 150.5,95.5C 135.833,95.5 121.167,95.5 106.5,95.5C 106.389,94.8826 106.056,94.3826 105.5,94C 102.518,93.502 99.5184,93.3354 96.5,93.5C 96.1667,89.5 95.8333,89.5 95.5,93.5C 92.9783,93.8719 90.9783,93.0386 89.5,91C 85.1794,90.501 80.8461,90.3343 76.5,90.5C 76.5,91.8333 76.5,93.1667 76.5,94.5C 75.3516,90.0189 75.1849,85.3522 76,80.5C 77.4813,79.5291 78.3146,78.1958 78.5,76.5C 79.609,76.4431 80.609,76.1098 81.5,75.5 Z"/></g>
<g><path style="opacity:1" fill="#1e2c5e" d="M 106.5,95.5 C 106.167,95.5 105.833,95.5 105.5,95.5C 100.5,95.5 95.5,95.5 90.5,95.5C 90.5,96.5 90.5,97.5 90.5,98.5C 85.5636,98.2164 80.8969,97.2164 76.5,95.5C 76.5,95.1667 76.5,94.8333 76.5,94.5C 76.5,93.1667 76.5,91.8333 76.5,90.5C 80.8461,90.3343 85.1794,90.501 89.5,91C 90.9783,93.0386 92.9783,93.8719 95.5,93.5C 95.8333,89.5 96.1667,89.5 96.5,93.5C 99.5184,93.3354 102.518,93.502 105.5,94C 106.056,94.3826 106.389,94.8826 106.5,95.5 Z"/></g>
<g><path style="opacity:1" fill="#253869" d="M 180.5,80.5 C 181.434,81.5676 181.768,82.901 181.5,84.5C 181.5,87.8333 181.5,91.1667 181.5,94.5C 176.26,95.4491 170.927,95.7825 165.5,95.5C 162.167,95.5 158.833,95.5 155.5,95.5C 154.833,95.5 154.167,95.5 153.5,95.5C 152.833,95.5 152.167,95.5 151.5,95.5C 151.167,95.5 150.833,95.5 150.5,95.5C 155.067,93.7149 160.067,92.8816 165.5,93C 167.026,91.1129 169.026,90.1129 171.5,90C 169.444,89.6892 167.444,89.1892 165.5,88.5C 164.833,89.1667 164.167,89.8333 163.5,90.5C 159.552,88.9691 155.552,87.9691 151.5,87.5C 152.833,87.5 154.167,87.5 155.5,87.5C 158.698,88.0356 161.365,87.369 163.5,85.5C 167.685,87.2887 172.019,88.122 176.5,88C 177.969,85.5623 179.302,83.0623 180.5,80.5 Z"/></g>
<g><path style="opacity:0.471" fill="#e3e4e6" d="M 216.5,73.5 C 219.672,81.5132 221.672,89.8466 222.5,98.5C 216.215,99.7444 209.882,100.244 203.5,100C 203.833,99.6667 204.167,99.3333 204.5,99C 202.265,93.9083 198.932,93.2417 194.5,97C 196.936,96.9466 199.269,97.1133 201.5,97.5C 202.348,99.4086 202.682,101.409 202.5,103.5C 199.833,103.5 197.167,103.5 194.5,103.5C 194.649,104.552 194.483,105.552 194,106.5C 191.51,103.939 189.01,103.939 186.5,106.5C 185.652,104.907 184.319,103.74 182.5,103C 185.741,101.527 186.074,99.6934 183.5,97.5C 184.872,95.3802 184.205,94.3802 181.5,94.5C 181.5,91.1667 181.5,87.8333 181.5,84.5C 185.657,82.257 189.99,80.257 194.5,78.5C 195.578,76.5253 195.245,74.692 193.5,73C 194.025,72.3076 194.692,71.8076 195.5,71.5C 195.911,72.2624 196.077,73.2624 196,74.5C 197.599,72.9644 199.433,72.4644 201.5,73C 199.668,73.7485 198.001,74.7485 196.5,76C 197.068,77.7122 198.568,79.2122 201,80.5C 206.597,78.8145 211.764,76.4811 216.5,73.5 Z"/></g>
<g><path style="opacity:0.471" fill="#f3f4f5" d="M 23.5,104.5 C 21.9261,106.102 21.2594,108.102 21.5,110.5C 18.6711,110.675 17.0045,109.342 16.5,106.5C 15.4104,107.391 15.4104,108.391 16.5,109.5C 12.6061,110.55 8.77275,110.217 5,108.5C 3.23824,108.944 3.4049,109.444 5.5,110C 3.5273,110.495 1.5273,110.662 -0.5,110.5C -0.5,106.167 -0.5,101.833 -0.5,97.5C 0.818273,91.9245 2.15161,86.2578 3.5,80.5C 5.91176,80.3059 6.91176,78.9726 6.5,76.5C 13.4475,78.32 20.4475,79.9867 27.5,81.5C 25.6504,89.081 24.317,96.7477 23.5,104.5 Z"/></g>
<g><path style="opacity:0.706" fill="#8e97c7" d="M 150.5,95.5 C 150.833,95.5 151.167,95.5 151.5,95.5C 136.167,96.8333 120.833,96.8333 105.5,95.5C 105.833,95.5 106.167,95.5 106.5,95.5C 121.167,95.5 135.833,95.5 150.5,95.5 Z"/></g>
<g><path style="opacity:0.471" fill="#f6f6f7" d="M 105.5,95.5 C 120.833,96.8333 136.167,96.8333 151.5,95.5C 152.167,95.5 152.833,95.5 153.5,95.5C 152.387,97.7569 150.721,98.4236 148.5,97.5C 147.702,97.9569 147.369,98.6236 147.5,99.5C 145.5,99.5 143.5,99.5 141.5,99.5C 141.38,98.4138 140.713,97.7472 139.5,97.5C 138.287,97.7472 137.62,98.4138 137.5,99.5C 121.839,98.9526 106.172,98.6193 90.5,98.5C 90.5,97.5 90.5,96.5 90.5,95.5C 95.5,95.5 100.5,95.5 105.5,95.5 Z"/></g>
<g><path style="opacity:0.471" fill="#dcdddf" d="M 181.5,94.5 C 184.205,94.3802 184.872,95.3802 183.5,97.5C 186.074,99.6934 185.741,101.527 182.5,103C 184.319,103.74 185.652,104.907 186.5,106.5C 185.022,106.762 183.689,106.429 182.5,105.5C 181.94,103.146 181.273,100.813 180.5,98.5C 179.509,102.445 179.176,106.445 179.5,110.5C 181.124,110.64 182.29,109.973 183,108.5C 184.205,109.071 185.372,109.738 186.5,110.5C 185.675,111.386 184.675,111.719 183.5,111.5C 183.5,112.5 183.5,113.5 183.5,114.5C 184.5,114.5 185.5,114.5 186.5,114.5C 186.5,116.5 186.5,118.5 186.5,120.5C 191.515,121.085 196.515,121.752 201.5,122.5C 201.5,124.5 201.5,126.5 201.5,128.5C 196.197,128.073 191.03,127.073 186,125.5C 184.591,126.781 183.091,127.781 181.5,128.5C 179.486,128.608 177.82,127.942 176.5,126.5C 177.628,121.938 178.295,117.272 178.5,112.5C 176.833,112.5 175.167,112.5 173.5,112.5C 173.747,115.939 173.414,119.272 172.5,122.5C 172.167,122.5 171.833,122.5 171.5,122.5C 171.567,121.041 171.234,119.708 170.5,118.5C 171.653,117.687 171.653,116.687 170.5,115.5C 171.167,114.833 171.833,114.167 172.5,113.5C 171.5,111.5 170.5,109.5 169.5,107.5C 170.872,105.38 170.205,104.38 167.5,104.5C 167.5,103.5 167.5,102.5 167.5,101.5C 166.448,101.649 165.448,101.483 164.5,101C 165.598,100.23 165.598,99.397 164.5,98.5C 165.404,97.791 165.737,96.791 165.5,95.5C 170.927,95.7825 176.26,95.4491 181.5,94.5 Z"/></g>
<g><path style="opacity:1" fill="#3b3e45" d="M 141.5,99.5 C 140.167,99.5 138.833,99.5 137.5,99.5C 137.62,98.4138 138.287,97.7472 139.5,97.5C 140.713,97.7472 141.38,98.4138 141.5,99.5 Z"/></g>
<g><path style="opacity:1" fill="#252931" d="M 155.5,95.5 C 158.833,95.5 162.167,95.5 165.5,95.5C 165.737,96.791 165.404,97.791 164.5,98.5C 163.518,99.1408 162.518,99.8075 161.5,100.5C 160.803,98.6155 159.803,98.2822 158.5,99.5C 157.066,98.4116 156.066,97.0783 155.5,95.5 Z"/></g>
<g><path style="opacity:0.973" fill="#3960a5" d="M 76.5,95.5 C 80.8969,97.2164 85.5636,98.2164 90.5,98.5C 106.172,98.6193 121.839,98.9526 137.5,99.5C 138.833,99.5 140.167,99.5 141.5,99.5C 143.5,99.5 145.5,99.5 147.5,99.5C 147.179,101.048 146.179,101.715 144.5,101.5C 122.167,101.5 99.8333,101.5 77.5,101.5C 75.5509,102.725 74.2175,102.058 73.5,99.5C 72.8333,99.8333 72.1667,100.167 71.5,100.5C 70.2267,99.7435 70.2267,99.0768 71.5,98.5C 72.8016,97.1931 74.135,97.1931 75.5,98.5C 76.3857,97.675 76.719,96.675 76.5,95.5 Z"/></g>
<g><path style="opacity:1" fill="#4e4f51" d="M 71.5,98.5 C 70.2267,99.0768 70.2267,99.7435 71.5,100.5C 72.1667,100.167 72.8333,99.8333 73.5,99.5C 74.2175,102.058 75.5509,102.725 77.5,101.5C 77.5,102.167 77.5,102.833 77.5,103.5C 77.7822,104.778 78.4489,105.778 79.5,106.5C 79.5,107.833 80.1667,108.5 81.5,108.5C 81.4606,109.583 81.1272,110.583 80.5,111.5C 83.0484,113.219 82.715,114.552 79.5,115.5C 80.1667,116.167 80.8333,116.833 81.5,117.5C 80.7087,119.148 79.7087,120.815 78.5,122.5C 77.5798,121.933 77.2465,122.599 77.5,124.5C 76.5,124.5 75.5,124.5 74.5,124.5C 74.6198,127.205 73.6198,127.872 71.5,126.5C 70.8027,128.385 69.8027,128.718 68.5,127.5C 67.5,128.167 66.5,128.833 65.5,129.5C 64.8076,128.975 64.3076,128.308 64,127.5C 61.7077,127.555 59.541,127.555 57.5,127.5C 57.5,126.5 57.5,125.5 57.5,124.5C 56.5,124.5 55.5,124.5 54.5,124.5C 54.6495,123.448 54.4828,122.448 54,121.5C 53.0862,122.654 52.2529,122.487 51.5,121C 52.7736,120.023 52.7736,119.189 51.5,118.5C 50.3473,117.687 50.3473,116.687 51.5,115.5C 50.8333,114.833 50.1667,114.167 49.5,113.5C 51.542,112.497 51.8754,111.163 50.5,109.5C 51.8631,108.107 52.6964,106.441 53,104.5C 53.3333,104.833 53.6667,105.167 54,105.5C 55.5106,104.436 55.6772,103.103 54.5,101.5C 57.4033,100.715 60.07,99.3817 62.5,97.5C 65.6146,97.6704 68.6146,98.0038 71.5,98.5 Z"/></g>
<g><path style="opacity:1" fill="#2355a6" d="M 77.5,101.5 C 99.8333,101.5 122.167,101.5 144.5,101.5C 144.5,102.167 144.5,102.833 144.5,103.5C 122.167,103.5 99.8333,103.5 77.5,103.5C 77.5,102.833 77.5,102.167 77.5,101.5 Z"/></g>
<g><path style="opacity:0.471" fill="#f7f8f9" d="M 222.5,98.5 C 222.5,99.1667 222.5,99.8333 222.5,100.5C 216.443,100.639 210.443,101.306 204.5,102.5C 204.709,103.086 205.043,103.586 205.5,104C 203.893,105.049 203.227,106.549 203.5,108.5C 207.893,108.457 208.226,108.957 204.5,110C 208.5,111 208.5,112 204.5,113C 208.361,113.569 208.361,114.402 204.5,115.5C 205.902,116.842 205.569,117.676 203.5,118C 204.641,118.741 204.641,119.575 203.5,120.5C 207.361,121.598 207.361,122.431 203.5,123C 207.5,124 207.5,125 203.5,126C 205.878,126.974 205.544,127.641 202.5,128C 203.59,130.279 203.256,132.446 201.5,134.5C 200.749,133.624 200.249,132.624 200,131.5C 199.326,132.578 198.326,133.245 197,133.5C 192.504,132.417 188.004,131.417 183.5,130.5C 182.833,129.833 182.167,129.167 181.5,128.5C 183.091,127.781 184.591,126.781 186,125.5C 191.03,127.073 196.197,128.073 201.5,128.5C 201.5,126.5 201.5,124.5 201.5,122.5C 196.515,121.752 191.515,121.085 186.5,120.5C 186.5,118.5 186.5,116.5 186.5,114.5C 185.5,114.5 184.5,114.5 183.5,114.5C 183.5,113.5 183.5,112.5 183.5,111.5C 184.675,111.719 185.675,111.386 186.5,110.5C 185.372,109.738 184.205,109.071 183,108.5C 182.29,109.973 181.124,110.64 179.5,110.5C 179.176,106.445 179.509,102.445 180.5,98.5C 181.273,100.813 181.94,103.146 182.5,105.5C 183.689,106.429 185.022,106.762 186.5,106.5C 189.01,103.939 191.51,103.939 194,106.5C 194.483,105.552 194.649,104.552 194.5,103.5C 197.167,103.5 199.833,103.5 202.5,103.5C 202.682,101.409 202.348,99.4086 201.5,97.5C 199.269,97.1133 196.936,96.9466 194.5,97C 198.932,93.2417 202.265,93.9083 204.5,99C 204.167,99.3333 203.833,99.6667 203.5,100C 209.882,100.244 216.215,99.7444 222.5,98.5 Z"/></g>
<g><path style="opacity:0.471" fill="#d9dbdc" d="M 222.5,100.5 C 223.931,110.218 223.598,119.884 221.5,129.5C 218.399,129.308 215.399,128.642 212.5,127.5C 210.427,131.221 209.26,135.221 209,139.5C 206.853,140.113 204.686,140.779 202.5,141.5C 203.632,149.433 203.132,149.433 201,141.5C 200.108,144.284 198.942,146.95 197.5,149.5C 199.833,150.167 202.167,150.833 204.5,151.5C 202.565,152.068 201.232,153.235 200.5,155C 201.424,156.811 202.257,156.645 203,154.5C 203.781,155.944 203.614,157.277 202.5,158.5C 201.549,157.674 200.549,157.508 199.5,158C 202.672,159.752 205.672,161.752 208.5,164C 204.64,162.737 200.973,160.903 197.5,158.5C 197.938,158.565 198.272,158.399 198.5,158C 194.289,155.117 189.623,153.284 184.5,152.5C 185.398,151.842 186.398,151.176 187.5,150.5C 187.5,148.5 187.5,146.5 187.5,144.5C 190.167,143.167 190.167,141.833 187.5,140.5C 187.694,138.597 187.694,136.763 187.5,135C 185.272,133.835 183.939,132.335 183.5,130.5C 188.004,131.417 192.504,132.417 197,133.5C 198.326,133.245 199.326,132.578 200,131.5C 200.249,132.624 200.749,133.624 201.5,134.5C 203.256,132.446 203.59,130.279 202.5,128C 205.544,127.641 205.878,126.974 203.5,126C 207.5,125 207.5,124 203.5,123C 207.361,122.431 207.361,121.598 203.5,120.5C 204.641,119.575 204.641,118.741 203.5,118C 205.569,117.676 205.902,116.842 204.5,115.5C 208.361,114.402 208.361,113.569 204.5,113C 208.5,112 208.5,111 204.5,110C 208.226,108.957 207.893,108.457 203.5,108.5C 203.227,106.549 203.893,105.049 205.5,104C 205.043,103.586 204.709,103.086 204.5,102.5C 210.443,101.306 216.443,100.639 222.5,100.5 Z"/></g>
<g><path style="opacity:1" fill="#1e3262" d="M 77.5,103.5 C 99.8333,103.5 122.167,103.5 144.5,103.5C 144.631,104.239 144.464,104.906 144,105.5C 143.23,104.402 142.397,104.402 141.5,105.5C 121.167,104.167 100.833,104.167 80.5,105.5C 80.5,106.167 80.1667,106.5 79.5,106.5C 78.4489,105.778 77.7822,104.778 77.5,103.5 Z"/></g>
<g><path style="opacity:1" fill="#b5b9c7" d="M 73.5,106.5 C 75.6801,108.031 76.6801,110.198 76.5,113C 76.6068,115.221 75.9402,117.054 74.5,118.5C 75.5767,115.474 75.5767,112.474 74.5,109.5C 71.9067,107.012 69.5734,107.012 67.5,109.5C 67.1667,109.5 66.8333,109.5 66.5,109.5C 66.6309,108.624 66.2975,107.957 65.5,107.5C 63.057,109.055 60.3903,109.722 57.5,109.5C 60.6343,104.881 64.9676,103.381 70.5,105C 71.2438,106.039 72.2438,106.539 73.5,106.5 Z"/></g>
<g><path style="opacity:1" fill="#5277ba" d="M 80.5,105.5 C 85.8333,105.5 91.1667,105.5 96.5,105.5C 96.5,106.833 96.5,108.167 96.5,109.5C 91.8333,109.5 87.1667,109.5 82.5,109.5C 82.5,108.833 82.1667,108.5 81.5,108.5C 80.1667,108.5 79.5,107.833 79.5,106.5C 80.1667,106.5 80.5,106.167 80.5,105.5 Z"/></g>
<g><path style="opacity:1" fill="#5478bb" d="M 141.5,105.5 C 142.826,107.195 142.493,108.528 140.5,109.5C 135.5,109.5 130.5,109.5 125.5,109.5C 125.5,108.167 125.5,106.833 125.5,105.5C 130.833,105.5 136.167,105.5 141.5,105.5 Z"/></g>
<g><path style="opacity:1" fill="#335ea8" d="M 80.5,105.5 C 100.833,104.167 121.167,104.167 141.5,105.5C 136.167,105.5 130.833,105.5 125.5,105.5C 125.5,106.833 125.5,108.167 125.5,109.5C 116.068,108.184 106.735,108.184 97.5,109.5C 97.1667,109.5 96.8333,109.5 96.5,109.5C 96.5,108.167 96.5,106.833 96.5,105.5C 91.1667,105.5 85.8333,105.5 80.5,105.5 Z"/></g>
<g><path style="opacity:1" fill="#1d4081" d="M 125.5,109.5 C 126.347,114.15 124.681,117.816 120.5,120.5C 119.518,121.141 118.518,121.807 117.5,122.5C 116.304,122.154 116.304,121.654 117.5,121C 111.971,120.916 106.638,119.916 101.5,118C 102.793,117.51 104.127,117.343 105.5,117.5C 105.549,114.901 106.549,112.734 108.5,111C 106.19,110.503 103.857,110.337 101.5,110.5C 101.33,111.822 101.663,112.989 102.5,114C 100.899,114.273 99.3988,114.773 98,115.5C 97.5045,113.527 97.3379,111.527 97.5,109.5C 106.735,108.184 116.068,108.184 125.5,109.5 Z"/></g>
<g><path style="opacity:1" fill="#4c4e50" d="M 153.5,95.5 C 154.167,95.5 154.833,95.5 155.5,95.5C 156.066,97.0783 157.066,98.4116 158.5,99.5C 159.803,98.2822 160.803,98.6155 161.5,100.5C 162.518,99.8075 163.518,99.1408 164.5,98.5C 165.598,99.397 165.598,100.23 164.5,101C 165.448,101.483 166.448,101.649 167.5,101.5C 167.5,102.5 167.5,103.5 167.5,104.5C 170.205,104.38 170.872,105.38 169.5,107.5C 170.5,109.5 171.5,111.5 172.5,113.5C 171.833,114.167 171.167,114.833 170.5,115.5C 171.653,116.687 171.653,117.687 170.5,118.5C 169.226,119.189 169.226,120.023 170.5,121C 169.552,121.483 168.552,121.649 167.5,121.5C 167.657,122.873 167.49,124.207 167,125.5C 166.586,125.043 166.086,124.709 165.5,124.5C 164.833,125.5 164.167,126.5 163.5,127.5C 161.851,127.925 160.017,127.925 158,127.5C 156.983,130.028 155.816,130.028 154.5,127.5C 152.214,128.42 149.881,128.42 147.5,127.5C 147.5,126.5 147.5,125.5 147.5,124.5C 146.5,124.5 145.5,124.5 144.5,124.5C 144.5,123.5 144.5,122.5 144.5,121.5C 142.058,121.646 141.391,120.813 142.5,119C 141.692,118.692 141.025,118.192 140.5,117.5C 140.527,114.807 140.527,112.14 140.5,109.5C 142.493,108.528 142.826,107.195 141.5,105.5C 142.397,104.402 143.23,104.402 144,105.5C 144.464,104.906 144.631,104.239 144.5,103.5C 144.5,102.833 144.5,102.167 144.5,101.5C 146.179,101.715 147.179,101.048 147.5,99.5C 147.369,98.6236 147.702,97.9569 148.5,97.5C 150.721,98.4236 152.387,97.7569 153.5,95.5 Z"/></g>
<g><path style="opacity:1" fill="#c0c3d3" d="M 165.5,118.5 C 161.659,123.539 156.659,124.872 150.5,122.5C 147.289,117.806 146.789,112.806 149,107.5C 154,103.5 159,103.5 164,107.5C 165.337,111.026 165.837,114.692 165.5,118.5 Z"/></g>
<g><path style="opacity:1" fill="#777881" d="M 165.5,118.5 C 165.837,114.692 165.337,111.026 164,107.5C 159,103.5 154,103.5 149,107.5C 146.789,112.806 147.289,117.806 150.5,122.5C 145.371,118.548 144.204,113.548 147,107.5C 152.633,101.221 158.633,100.888 165,106.5C 166.714,110.563 166.88,114.563 165.5,118.5 Z"/></g>
<g><path style="opacity:0.471" fill="#d3d4d7" d="M 187.5,109.5 C 192.5,109.5 197.5,109.5 202.5,109.5C 202.5,111.5 202.5,113.5 202.5,115.5C 197.5,115.5 192.5,115.5 187.5,115.5C 187.5,113.5 187.5,111.5 187.5,109.5 Z"/></g>
<g><path style="opacity:0.471" fill="#eaeced" d="M 36.5,89.5 C 35.6862,91.631 35.1862,93.9644 35,96.5C 34.5876,107.385 34.4209,118.052 34.5,128.5C 33.1779,128.67 32.0113,128.337 31,127.5C 28.7177,113.059 29.2177,98.7253 32.5,84.5C 33.8333,84.5 35.1667,84.5 36.5,84.5C 36.5,86.1667 36.5,87.8333 36.5,89.5 Z"/></g>
<g><path style="opacity:1" fill="#1a4791" d="M 125.5,109.5 C 130.5,109.5 135.5,109.5 140.5,109.5C 140.527,112.14 140.527,114.807 140.5,117.5C 141.025,118.192 141.692,118.692 142.5,119C 141.391,120.813 142.058,121.646 144.5,121.5C 144.5,122.5 144.5,123.5 144.5,124.5C 145.234,125.708 145.567,127.041 145.5,128.5C 144.849,127.909 144.182,127.243 143.5,126.5C 142.033,127.695 140.533,127.695 139,126.5C 136.807,126.851 134.974,127.851 133.5,129.5C 131.533,128.318 130.2,128.985 129.5,131.5C 128.056,130.019 127.389,130.352 127.5,132.5C 126.833,132.5 126.167,132.5 125.5,132.5C 126.693,128.451 128.693,124.784 131.5,121.5C 127.893,120.511 124.226,120.177 120.5,120.5C 124.681,117.816 126.347,114.15 125.5,109.5 Z"/></g>
<g><path style="opacity:1" fill="#2a529c" d="M 153.5,109.5 C 159.704,109.314 161.037,111.814 157.5,117C 152.632,116.711 151.299,114.211 153.5,109.5 Z"/></g>
<g><path style="opacity:0.471" fill="#f9fafa" d="M 176.5,126.5 C 175.153,125.829 173.986,125.829 173,126.5C 172.51,125.207 172.343,123.873 172.5,122.5C 173.414,119.272 173.747,115.939 173.5,112.5C 175.167,112.5 176.833,112.5 178.5,112.5C 178.295,117.272 177.628,121.938 176.5,126.5 Z"/></g>
<g><path style="opacity:0.469" fill="#edefef" d="M 23.5,104.5 C 23.464,113.185 23.7974,121.851 24.5,130.5C 17.867,131.139 11.367,132.472 5,134.5C 3.74407,134.352 2.5774,134.018 1.5,133.5C 1.03718,130.67 0.370512,128.003 -0.5,125.5C -0.5,120.5 -0.5,115.5 -0.5,110.5C 1.5273,110.662 3.5273,110.495 5.5,110C 3.4049,109.444 3.23824,108.944 5,108.5C 8.77275,110.217 12.6061,110.55 16.5,109.5C 15.4104,108.391 15.4104,107.391 16.5,106.5C 17.0045,109.342 18.6711,110.675 21.5,110.5C 21.2594,108.102 21.9261,106.102 23.5,104.5 Z"/></g>
<g><path style="opacity:1" fill="#7c7d86" d="M 73.5,106.5 C 72.2438,106.539 71.2438,106.039 70.5,105C 64.9676,103.381 60.6343,104.881 57.5,109.5C 56.5337,120.863 61.5337,124.863 72.5,121.5C 63.4911,126.479 57.4911,123.812 54.5,113.5C 56.3335,105.502 61.3335,102.002 69.5,103C 71.3237,103.66 72.657,104.827 73.5,106.5 Z"/></g>
<g><path style="opacity:1" fill="#203568" d="M 81.5,108.5 C 82.1667,108.5 82.5,108.833 82.5,109.5C 84.309,111.099 85.6424,113.099 86.5,115.5C 86.3069,114.312 86.8069,112.978 88,111.5C 88.8443,118.522 91.8443,124.522 97,129.5C 97.4828,130.448 97.6495,131.448 97.5,132.5C 106.833,132.5 116.167,132.5 125.5,132.5C 126.167,132.5 126.833,132.5 127.5,132.5C 127.548,133.507 126.548,133.84 124.5,133.5C 115.5,133.5 106.5,133.5 97.5,133.5C 96.5,133.5 95.5,133.5 94.5,133.5C 94.8808,131.058 94.2141,130.391 92.5,131.5C 91.8003,128.985 90.4669,128.318 88.5,129.5C 87.7492,128.624 87.2492,127.624 87,126.5C 85.5861,127.413 84.0861,127.413 82.5,126.5C 79.5348,127.398 78.2015,126.065 78.5,122.5C 79.7087,120.815 80.7087,119.148 81.5,117.5C 80.8333,116.833 80.1667,116.167 79.5,115.5C 82.715,114.552 83.0484,113.219 80.5,111.5C 81.1272,110.583 81.4606,109.583 81.5,108.5 Z"/></g>
<g><path style="opacity:1" fill="#d4d8e8" d="M 66.5,109.5 C 62.7747,109.78 61.608,111.78 63,115.5C 66.4911,118.446 68.6578,117.612 69.5,113C 69.6134,111.301 68.9468,110.134 67.5,109.5C 69.5734,107.012 71.9067,107.012 74.5,109.5C 75.5767,112.474 75.5767,115.474 74.5,118.5C 74.0679,119.71 73.4013,120.71 72.5,121.5C 61.5337,124.863 56.5337,120.863 57.5,109.5C 60.3903,109.722 63.057,109.055 65.5,107.5C 66.2975,107.957 66.6309,108.624 66.5,109.5 Z"/></g>
<g><path style="opacity:1" fill="#28519a" d="M 66.5,109.5 C 66.8333,109.5 67.1667,109.5 67.5,109.5C 68.9468,110.134 69.6134,111.301 69.5,113C 68.6578,117.612 66.4911,118.446 63,115.5C 61.608,111.78 62.7747,109.78 66.5,109.5 Z"/></g>
<g><path style="opacity:1" fill="#194d9d" d="M 82.5,109.5 C 87.1667,109.5 91.8333,109.5 96.5,109.5C 96.8333,109.5 97.1667,109.5 97.5,109.5C 97.3379,111.527 97.5045,113.527 98,115.5C 99.3988,114.773 100.899,114.273 102.5,114C 101.663,112.989 101.33,111.822 101.5,110.5C 103.857,110.337 106.19,110.503 108.5,111C 106.549,112.734 105.549,114.901 105.5,117.5C 104.127,117.343 102.793,117.51 101.5,118C 106.638,119.916 111.971,120.916 117.5,121C 116.304,121.654 116.304,122.154 117.5,122.5C 118.518,121.807 119.518,121.141 120.5,120.5C 124.226,120.177 127.893,120.511 131.5,121.5C 128.693,124.784 126.693,128.451 125.5,132.5C 116.167,132.5 106.833,132.5 97.5,132.5C 97.6495,131.448 97.4828,130.448 97,129.5C 91.8443,124.522 88.8443,118.522 88,111.5C 86.8069,112.978 86.3069,114.312 86.5,115.5C 85.6424,113.099 84.309,111.099 82.5,109.5 Z"/></g>
<g><path style="opacity:1" fill="#21407f" d="M 51.5,118.5 C 52.7736,119.189 52.7736,120.023 51.5,121C 52.2529,122.487 53.0862,122.654 54,121.5C 54.4828,122.448 54.6495,123.448 54.5,124.5C 55.5,124.5 56.5,124.5 57.5,124.5C 57.5,125.5 57.5,126.5 57.5,127.5C 56.8333,127.5 56.5,127.833 56.5,128.5C 55.8826,128.611 55.3826,128.944 55,129.5C 54.6851,126.853 53.5184,126.187 51.5,127.5C 50.6143,126.675 50.281,125.675 50.5,124.5C 50.3253,122.379 50.6586,120.379 51.5,118.5 Z"/></g>
<g><path style="opacity:1" fill="#142344" d="M 170.5,118.5 C 171.234,119.708 171.567,121.041 171.5,122.5C 171.662,124.527 171.495,126.527 171,128.5C 169.237,128.694 167.403,128.694 165.5,128.5C 163.967,130.289 162.967,132.289 162.5,134.5C 161.5,134.5 160.5,134.5 159.5,134.5C 159.52,136.143 158.853,137.476 157.5,138.5C 157.833,139.167 158.167,139.833 158.5,140.5C 157.478,141.354 156.645,142.354 156,143.5C 155.355,142.354 154.522,141.354 153.5,140.5C 153.694,138.597 153.694,136.763 153.5,135C 150.207,134.745 149.04,133.245 150,130.5C 149.586,130.957 149.086,131.291 148.5,131.5C 147.859,130.007 146.859,129.007 145.5,128.5C 145.567,127.041 145.234,125.708 144.5,124.5C 145.5,124.5 146.5,124.5 147.5,124.5C 147.5,125.5 147.5,126.5 147.5,127.5C 149.881,128.42 152.214,128.42 154.5,127.5C 155.816,130.028 156.983,130.028 158,127.5C 160.017,127.925 161.851,127.925 163.5,127.5C 164.167,126.5 164.833,125.5 165.5,124.5C 166.086,124.709 166.586,125.043 167,125.5C 167.49,124.207 167.657,122.873 167.5,121.5C 168.552,121.649 169.552,121.483 170.5,121C 169.226,120.023 169.226,119.189 170.5,118.5 Z"/></g>
<g><path style="opacity:1" fill="#15213f" d="M 78.5,122.5 C 78.2015,126.065 79.5348,127.398 82.5,126.5C 82.5299,127.497 82.0299,128.164 81,128.5C 79.2759,128.615 77.4426,128.615 75.5,128.5C 74.6143,129.325 74.281,130.325 74.5,131.5C 73.5,131.5 72.5,131.5 71.5,131.5C 70.8412,134.161 69.5078,136.494 67.5,138.5C 67.337,140.622 67.337,142.789 67.5,145C 65.7412,145.798 64.0745,145.631 62.5,144.5C 65.1667,143.167 65.1667,141.833 62.5,140.5C 65.1306,138.995 64.7973,138.329 61.5,138.5C 61.33,137.178 61.6634,136.011 62.5,135C 61.376,134.751 60.376,134.251 59.5,133.5C 61.0107,131.162 60.6773,130.496 58.5,131.5C 57.8243,130.398 57.1577,129.398 56.5,128.5C 56.5,127.833 56.8333,127.5 57.5,127.5C 59.541,127.555 61.7077,127.555 64,127.5C 64.3076,128.308 64.8076,128.975 65.5,129.5C 66.5,128.833 67.5,128.167 68.5,127.5C 69.8027,128.718 70.8027,128.385 71.5,126.5C 73.6198,127.872 74.6198,127.205 74.5,124.5C 75.5,124.5 76.5,124.5 77.5,124.5C 77.2465,122.599 77.5798,121.933 78.5,122.5 Z"/></g>
<g><path style="opacity:0.471" fill="#f9f9f9" d="M 97.5,133.5 C 106.5,133.5 115.5,133.5 124.5,133.5C 124.082,134.222 123.416,134.722 122.5,135C 122.921,137.754 122.921,140.587 122.5,143.5C 120.08,143.708 117.747,143.374 115.5,142.5C 114.752,145.295 113.252,145.962 111,144.5C 109.108,147.39 108.275,147.056 108.5,143.5C 106.094,142.009 103.427,141.176 100.5,141C 101.287,139.687 100.954,138.52 99.5,137.5C 98.2264,136.811 98.2264,135.977 99.5,135C 98.5842,134.722 97.9175,134.222 97.5,133.5 Z"/></g>
<g><path style="opacity:1" fill="#505253" d="M 50.5,124.5 C 50.281,125.675 50.6143,126.675 51.5,127.5C 53.5184,126.187 54.6851,126.853 55,129.5C 55.3826,128.944 55.8826,128.611 56.5,128.5C 57.1577,129.398 57.8243,130.398 58.5,131.5C 60.6773,130.496 61.0107,131.162 59.5,133.5C 60.376,134.251 61.376,134.751 62.5,135C 61.6634,136.011 61.33,137.178 61.5,138.5C 64.7973,138.329 65.1306,138.995 62.5,140.5C 65.1667,141.833 65.1667,143.167 62.5,144.5C 64.0745,145.631 65.7412,145.798 67.5,145C 67.337,142.789 67.337,140.622 67.5,138.5C 69.5078,136.494 70.8412,134.161 71.5,131.5C 72.5,131.5 73.5,131.5 74.5,131.5C 74.281,130.325 74.6143,129.325 75.5,128.5C 77.4426,128.615 79.2759,128.615 81,128.5C 82.0299,128.164 82.5299,127.497 82.5,126.5C 84.0861,127.413 85.5861,127.413 87,126.5C 87.2492,127.624 87.7492,128.624 88.5,129.5C 90.4669,128.318 91.8003,128.985 92.5,131.5C 94.2141,130.391 94.8808,131.058 94.5,133.5C 95.5,133.5 96.5,133.5 97.5,133.5C 97.9175,134.222 98.5842,134.722 99.5,135C 98.2264,135.977 98.2264,136.811 99.5,137.5C 98.4647,139.205 98.4647,140.872 99.5,142.5C 98.9747,143.192 98.3081,143.692 97.5,144C 98.7432,145.816 98.4099,147.316 96.5,148.5C 95.8333,150.5 95.1667,152.5 94.5,154.5C 92.4205,155.044 90.4205,155.878 88.5,157C 89.7375,157.232 90.7375,157.732 91.5,158.5C 87.1667,158.5 82.8333,158.5 78.5,158.5C 78.3957,156.027 77.3957,155.361 75.5,156.5C 73.7996,155.39 72.4663,154.057 71.5,152.5C 70.6016,151.842 69.6016,151.176 68.5,150.5C 69.7202,148.177 68.8869,146.844 66,146.5C 65.073,148.356 63.573,150.356 61.5,152.5C 60.9217,154.443 59.9217,154.777 58.5,153.5C 57.8333,154.5 57.1667,155.5 56.5,156.5C 54.8634,155.556 53.8634,156.223 53.5,158.5C 52.2379,155.929 50.9045,155.929 49.5,158.5C 48.1667,155.833 46.8333,155.833 45.5,158.5C 43.8974,157.207 42.2307,156.207 40.5,155.5C 39.0998,154.9 38.0998,153.9 37.5,152.5C 36.6016,151.842 35.6016,151.176 34.5,150.5C 34.5,148.5 34.5,146.5 34.5,144.5C 31.8333,143.167 31.8333,141.833 34.5,140.5C 34.3062,138.597 34.3062,136.763 34.5,135C 35.0442,134.283 35.7109,133.783 36.5,133.5C 37.404,132.791 37.7373,131.791 37.5,130.5C 41.1647,129.252 44.6647,127.585 48,125.5C 48.3333,125.833 48.6667,126.167 49,126.5C 49.2784,125.584 49.7784,124.918 50.5,124.5 Z"/></g>
<g><path style="opacity:1" fill="#767780" d="M 54.5,134.5 C 42.5057,132.159 38.1723,136.826 41.5,148.5C 44.9594,151.231 48.9594,152.231 53.5,151.5C 52.5081,153.026 51.0081,153.693 49,153.5C 42.3113,153.145 38.478,149.645 37.5,143C 38.6667,136.5 42.5,132.667 49,131.5C 51.2961,131.859 53.1295,132.859 54.5,134.5 Z"/></g>
<g><path style="opacity:1" fill="#c3c7d7" d="M 54.5,134.5 C 57.6337,136.072 59.3003,138.738 59.5,142.5C 59.6653,147.079 57.6653,150.079 53.5,151.5C 48.9594,152.231 44.9594,151.231 41.5,148.5C 38.1723,136.826 42.5057,132.159 54.5,134.5 Z"/></g>
<g><path style="opacity:1" fill="#c0c4d3" d="M 79.5,133.5 C 86.7658,132.958 91.4325,136.125 93.5,143C 91.7376,151.217 86.7376,154.384 78.5,152.5C 71.6266,145.61 71.9599,139.277 79.5,133.5 Z"/></g>
<g><path style="opacity:1" fill="#4c4e4f" d="M 171.5,122.5 C 171.833,122.5 172.167,122.5 172.5,122.5C 172.343,123.873 172.51,125.207 173,126.5C 173.986,125.829 175.153,125.829 176.5,126.5C 177.82,127.942 179.486,128.608 181.5,128.5C 182.167,129.167 182.833,129.833 183.5,130.5C 183.939,132.335 185.272,133.835 187.5,135C 187.694,136.763 187.694,138.597 187.5,140.5C 190.167,141.833 190.167,143.167 187.5,144.5C 187.5,146.5 187.5,148.5 187.5,150.5C 186.398,151.176 185.398,151.842 184.5,152.5C 184.631,153.239 184.464,153.906 184,154.5C 183.107,153.289 182.274,153.289 181.5,154.5C 181.709,155.086 182.043,155.586 182.5,156C 181.216,156.684 180.049,156.517 179,155.5C 178.019,158.655 176.685,158.988 175,156.5C 173.667,159.167 172.333,159.167 171,156.5C 170.583,157.756 169.75,158.423 168.5,158.5C 168.137,156.223 167.137,155.556 165.5,156.5C 164.749,155.624 164.249,154.624 164,153.5C 163.586,153.957 163.086,154.291 162.5,154.5C 161.824,153.398 161.158,152.398 160.5,151.5C 158.273,150.599 157.273,148.933 157.5,146.5C 153.96,146.194 152.626,147.527 153.5,150.5C 152.398,151.176 151.398,151.842 150.5,152.5C 149.235,152.96 148.069,154.293 147,156.5C 145.187,155.391 144.354,156.058 144.5,158.5C 141.167,158.5 137.833,158.5 134.5,158.5C 134.62,155.795 133.62,155.128 131.5,156.5C 130.749,155.624 130.249,154.624 130,153.5C 129.586,153.957 129.086,154.291 128.5,154.5C 126.967,152.711 125.967,150.711 125.5,148.5C 123.59,147.316 123.257,145.816 124.5,144C 123.906,143.536 123.239,143.369 122.5,143.5C 122.921,140.587 122.921,137.754 122.5,135C 123.416,134.722 124.082,134.222 124.5,133.5C 126.548,133.84 127.548,133.507 127.5,132.5C 127.389,130.352 128.056,130.019 129.5,131.5C 130.2,128.985 131.533,128.318 133.5,129.5C 134.974,127.851 136.807,126.851 139,126.5C 140.533,127.695 142.033,127.695 143.5,126.5C 144.182,127.243 144.849,127.909 145.5,128.5C 146.859,129.007 147.859,130.007 148.5,131.5C 149.086,131.291 149.586,130.957 150,130.5C 149.04,133.245 150.207,134.745 153.5,135C 153.694,136.763 153.694,138.597 153.5,140.5C 154.522,141.354 155.355,142.354 156,143.5C 156.645,142.354 157.478,141.354 158.5,140.5C 158.167,139.833 157.833,139.167 157.5,138.5C 158.853,137.476 159.52,136.143 159.5,134.5C 160.5,134.5 161.5,134.5 162.5,134.5C 162.967,132.289 163.967,130.289 165.5,128.5C 167.403,128.694 169.237,128.694 171,128.5C 171.495,126.527 171.662,124.527 171.5,122.5 Z"/></g>
<g><path style="opacity:1" fill="#b6b9c8" d="M 182.5,147.5 C 182.033,150.297 180.367,151.631 177.5,151.5C 165.434,152.046 161.767,146.713 166.5,135.5C 177.8,131.462 183.133,135.462 182.5,147.5 Z"/></g>
<g><path style="opacity:1" fill="#bbbfce" d="M 148.5,147.5 C 148.167,149.833 146.833,151.167 144.5,151.5C 132.401,153.063 128.401,148.063 132.5,136.5C 138.282,132.102 143.449,132.768 148,138.5C 148.498,141.482 148.665,144.482 148.5,147.5 Z"/></g>
<g><path style="opacity:1" fill="#767780" d="M 182.5,147.5 C 183.133,135.462 177.8,131.462 166.5,135.5C 166.953,134.542 167.619,133.708 168.5,133C 180.367,131.361 185.034,136.194 182.5,147.5 Z"/></g>
<g><path style="opacity:1" fill="#7a7b84" d="M 148.5,147.5 C 148.665,144.482 148.498,141.482 148,138.5C 143.449,132.768 138.282,132.102 132.5,136.5C 128.401,148.063 132.401,153.063 144.5,151.5C 135.877,155.22 130.544,152.387 128.5,143C 128.939,136.108 132.606,132.275 139.5,131.5C 148.626,133.585 151.626,138.919 148.5,147.5 Z"/></g>
<g><path style="opacity:1" fill="#2a519c" d="M 81.5,138.5 C 86.6677,139.339 87.6677,141.839 84.5,146C 81.1861,147.165 79.1861,145.998 78.5,142.5C 79.1716,140.84 80.1716,139.507 81.5,138.5 Z"/></g>
<g><path style="opacity:1" fill="#25509c" d="M 47.5,138.5 C 52.2624,139.092 53.5957,141.592 51.5,146C 45.4034,146.147 44.0701,143.647 47.5,138.5 Z"/></g>
<g><path style="opacity:1" fill="#2c539e" d="M 137.5,138.5 C 142.805,139.241 144.139,141.741 141.5,146C 135.403,146.147 134.07,143.647 137.5,138.5 Z"/></g>
<g><path style="opacity:1" fill="#25509c" d="M 171.5,138.5 C 176.668,139.339 177.668,141.839 174.5,146C 172.567,146.783 171.067,146.283 170,144.5C 169.252,142.16 169.752,140.16 171.5,138.5 Z"/></g>
<g><path style="opacity:0.472" fill="#eef0f0" d="M 34.5,129.5 C 36.1765,130.183 36.8432,131.517 36.5,133.5C 35.7109,133.783 35.0442,134.283 34.5,135C 34.3062,136.763 34.3062,138.597 34.5,140.5C 31.8333,141.833 31.8333,143.167 34.5,144.5C 34.5,146.5 34.5,148.5 34.5,150.5C 35.6016,151.176 36.6016,151.842 37.5,152.5C 35.9705,153.067 34.4705,153.733 33,154.5C 32.3147,157.057 30.8147,158.891 28.5,160C 29.1667,160.333 29.8333,160.667 30.5,161C 27.7074,163.734 28.0407,164.734 31.5,164C 30.0403,164.811 29.707,165.645 30.5,166.5C 32.9296,164.515 35.5963,163.349 38.5,163C 35.4952,164.67 33.3285,166.836 32,169.5C 34.6179,167.278 37.4512,165.778 40.5,165C 38.0888,166.955 35.5888,168.789 33,170.5C 33.0551,172.108 33.8884,173.442 35.5,174.5C 37.6789,173.243 39.6789,171.743 41.5,170C 42.4368,169.308 43.1034,169.475 43.5,170.5C 41.1969,172.325 38.8636,174.158 36.5,176C 37.9078,176.315 39.2411,175.982 40.5,175C 41.7657,173.017 43.4324,172.017 45.5,172C 43.8333,173.667 42.1667,175.333 40.5,177C 42.8333,176 45.1667,175 47.5,174C 44.5788,176.347 42.5788,178.847 41.5,181.5C 51.5243,173.516 51.8576,174.016 42.5,183C 44.5,182.333 46.5,181.667 48.5,181C 46.6707,182.113 45.8374,183.613 46,185.5C 47.8333,184.333 49.3333,182.833 50.5,181C 51.1667,180.333 51.8333,180.333 52.5,181C 50.0413,183.108 48.5413,185.608 48,188.5C 49.7146,186.241 51.5479,184.074 53.5,182C 54.1667,181.333 54.8333,181.333 55.5,182C 52.9061,184.086 50.9061,186.586 49.5,189.5C 49.719,190.675 49.3857,191.675 48.5,192.5C 45.6826,190.183 43.0159,187.683 40.5,185C 39.8333,184.333 39.1667,184.333 38.5,185C 42.6263,189.503 46.6263,193.169 50.5,196C 52.5,197.667 54.5,199.333 56.5,201C 53.4099,202.013 51.4099,203.513 50.5,205.5C 43.7675,201.797 37.7675,197.131 32.5,191.5C 32.3893,190.883 32.056,190.383 31.5,190C 33.4139,187.382 35.4139,185.549 37.5,184.5C 36.8333,183.5 36.1667,182.5 35.5,181.5C 31.2044,180.672 26.8711,180.172 22.5,180C 22.0426,179.586 21.7093,179.086 21.5,178.5C 24.4012,175.705 25.9012,172.372 26,168.5C 25.2613,167.426 24.2613,166.759 23,166.5C 20.6526,166.907 18.486,168.24 16.5,170.5C 14.3868,167.112 12.3868,163.612 10.5,160C 6.64963,159.892 2.98297,160.725 -0.5,162.5C -0.5,160.833 -0.5,159.167 -0.5,157.5C 2.64917,157.789 5.64917,157.289 8.5,156C 7.74756,155.329 7.41423,154.496 7.5,153.5C 7.44312,152.391 7.10978,151.391 6.5,150.5C 4.90487,147.715 3.90487,144.715 3.5,141.5C 3.5,140.5 3.5,139.5 3.5,138.5C 6.79731,138.671 7.13065,138.005 4.5,136.5C 14.5355,134.157 24.5355,131.824 34.5,129.5 Z"/></g>
<g><path style="opacity:0.494" fill="#e1e3e4" d="M 99.5,137.5 C 100.954,138.52 101.287,139.687 100.5,141C 103.427,141.176 106.094,142.009 108.5,143.5C 108.275,147.056 109.108,147.39 111,144.5C 113.252,145.962 114.752,145.295 115.5,142.5C 117.747,143.374 120.08,143.708 122.5,143.5C 123.239,143.369 123.906,143.536 124.5,144C 123.257,145.816 123.59,147.316 125.5,148.5C 124.596,149.209 124.263,150.209 124.5,151.5C 115.482,151.448 106.482,151.782 97.5,152.5C 97.7678,150.901 97.4345,149.568 96.5,148.5C 98.4099,147.316 98.7432,145.816 97.5,144C 98.3081,143.692 98.9747,143.192 99.5,142.5C 98.4647,140.872 98.4647,139.205 99.5,137.5 Z"/></g>
<g><path style="opacity:0.524" fill="#d5d5d5" d="M 160.5,151.5 C 157.375,152.479 154.042,152.813 150.5,152.5C 151.398,151.842 152.398,151.176 153.5,150.5C 152.626,147.527 153.96,146.194 157.5,146.5C 157.273,148.933 158.273,150.599 160.5,151.5 Z"/></g>
<g><path style="opacity:0.123" fill="#a7a7a7" d="M -0.5,150.5 C 1.83333,150.5 4.16667,150.5 6.5,150.5C 7.10978,151.391 7.44312,152.391 7.5,153.5C 4.94551,152.612 2.27884,152.279 -0.5,152.5C -0.5,151.833 -0.5,151.167 -0.5,150.5 Z"/></g>
<g><path style="opacity:0.682" fill="#d2d2d2" d="M 71.5,152.5 C 68.1667,152.5 64.8333,152.5 61.5,152.5C 63.573,150.356 65.073,148.356 66,146.5C 68.8869,146.844 69.7202,148.177 68.5,150.5C 69.6016,151.176 70.6016,151.842 71.5,152.5 Z"/></g>
<g><path style="opacity:1" fill="#878994" d="M 166.5,135.5 C 161.767,146.713 165.434,152.046 177.5,151.5C 172.402,154.435 167.902,153.435 164,148.5C 161.463,143.395 162.296,139.061 166.5,135.5 Z"/></g>
<g><path style="opacity:0.533" fill="#ebedee" d="M 221.5,129.5 C 221.167,132.833 220.833,136.167 220.5,139.5C 221.833,139.5 223.167,139.5 224.5,139.5C 224.5,150.833 224.5,162.167 224.5,173.5C 217.485,173.729 210.485,174.229 203.5,175C 198.579,179.747 194.246,184.914 190.5,190.5C 187.491,190.577 185.324,189.244 184,186.5C 183.312,185.668 183.479,185.002 184.5,184.5C 185.833,185.833 187.167,187.167 188.5,188.5C 189.594,187.132 189.26,185.965 187.5,185C 188.833,185 190.167,185 191.5,185C 188.833,182.333 186.167,179.667 183.5,177C 184.167,176.333 184.833,176.333 185.5,177C 187.727,179.935 190.394,181.935 193.5,183C 191.5,181 189.5,179 187.5,177C 190.167,178.333 192.833,179.667 195.5,181C 192.833,178.333 190.167,175.667 187.5,173C 188.167,172.333 188.833,172.333 189.5,173C 199.166,181.334 199.499,181.001 190.5,172C 191.167,171.333 191.833,171.333 192.5,172C 194.204,174.757 196.538,176.09 199.5,176C 196.872,174.374 194.539,172.374 192.5,170C 195.352,171.591 198.352,172.924 201.5,174C 186.812,162.345 187.146,161.845 202.5,172.5C 204.336,170.818 205.336,169.151 205.5,167.5C 206.774,166.811 206.774,165.977 205.5,165C 201.835,163.503 198.502,161.503 195.5,159C 196.094,158.536 196.761,158.369 197.5,158.5C 200.973,160.903 204.64,162.737 208.5,164C 205.672,161.752 202.672,159.752 199.5,158C 200.549,157.508 201.549,157.674 202.5,158.5C 203.614,157.277 203.781,155.944 203,154.5C 202.257,156.645 201.424,156.811 200.5,155C 201.232,153.235 202.565,152.068 204.5,151.5C 202.167,150.833 199.833,150.167 197.5,149.5C 198.942,146.95 200.108,144.284 201,141.5C 203.132,149.433 203.632,149.433 202.5,141.5C 204.686,140.779 206.853,140.113 209,139.5C 209.26,135.221 210.427,131.221 212.5,127.5C 215.399,128.642 218.399,129.308 221.5,129.5 Z"/></g>
<g><path style="opacity:0.804" fill="#a1a3a9" d="M 96.5,148.5 C 97.4345,149.568 97.7678,150.901 97.5,152.5C 106.482,151.782 115.482,151.448 124.5,151.5C 124.263,150.209 124.596,149.209 125.5,148.5C 125.967,150.711 126.967,152.711 128.5,154.5C 129.086,154.291 129.586,153.957 130,153.5C 130.249,154.624 130.749,155.624 131.5,156.5C 133.62,155.128 134.62,155.795 134.5,158.5C 137.833,158.5 141.167,158.5 144.5,158.5C 144.833,158.5 145.167,158.5 145.5,158.5C 127.68,158.72 109.68,158.72 91.5,158.5C 90.7375,157.732 89.7375,157.232 88.5,157C 90.4205,155.878 92.4205,155.044 94.5,154.5C 95.1667,152.5 95.8333,150.5 96.5,148.5 Z"/></g>
<g><path style="opacity:0.925" fill="#7c7f85" d="M 160.5,151.5 C 161.158,152.398 161.824,153.398 162.5,154.5C 163.086,154.291 163.586,153.957 164,153.5C 164.249,154.624 164.749,155.624 165.5,156.5C 167.137,155.556 168.137,156.223 168.5,158.5C 160.833,158.5 153.167,158.5 145.5,158.5C 145.167,158.5 144.833,158.5 144.5,158.5C 144.354,156.058 145.187,155.391 147,156.5C 148.069,154.293 149.235,152.96 150.5,152.5C 154.042,152.813 157.375,152.479 160.5,151.5 Z"/></g>
<g><path style="opacity:0.914" fill="#86898f" d="M 61.5,152.5 C 64.8333,152.5 68.1667,152.5 71.5,152.5C 72.4663,154.057 73.7996,155.39 75.5,156.5C 77.3957,155.361 78.3957,156.027 78.5,158.5C 70.1667,158.5 61.8333,158.5 53.5,158.5C 53.8634,156.223 54.8634,155.556 56.5,156.5C 57.1667,155.5 57.8333,154.5 58.5,153.5C 59.9217,154.777 60.9217,154.443 61.5,152.5 Z"/></g>
<g><path style="opacity:0.027" fill="#dedee1" d="M 16.5,170.5 C 16.0831,171.124 15.4164,171.457 14.5,171.5C 9.59454,170.095 4.59454,169.429 -0.5,169.5C -0.5,167.167 -0.5,164.833 -0.5,162.5C 2.98297,160.725 6.64963,159.892 10.5,160C 12.3868,163.612 14.3868,167.112 16.5,170.5 Z"/></g>
<g><path style="opacity:0.537" fill="#e0e2e4" d="M 94.5,168.5 C 93.7611,168.369 93.0944,168.536 92.5,169C 110.372,176.299 128.205,176.132 146,168.5C 147.578,169.711 147.745,171.045 146.5,172.5C 144.286,170.076 143.286,170.743 143.5,174.5C 141.857,174.52 140.524,173.853 139.5,172.5C 138.571,173.689 138.238,175.022 138.5,176.5C 134.52,178.471 130.187,179.638 125.5,180C 119.843,180.499 114.176,180.666 108.5,180.5C 109.263,179.732 110.263,179.232 111.5,179C 110.929,177.795 110.262,176.628 109.5,175.5C 108.476,176.853 107.143,177.52 105.5,177.5C 105.719,176.325 105.386,175.325 104.5,174.5C 103.476,175.853 102.143,176.52 100.5,176.5C 100.719,175.325 100.386,174.325 99.5,173.5C 98.4763,174.853 97.143,175.52 95.5,175.5C 96.0547,171.416 95.0547,170.749 92.5,173.5C 91.8516,169.362 90.1849,168.695 87.5,171.5C 86.7189,170.271 86.2189,168.938 86,167.5C 83.5372,171.308 81.0372,175.142 78.5,179C 77.7665,180.766 77.4332,182.599 77.5,184.5C 79.4672,184.739 81.3005,184.406 83,183.5C 84.6446,180.378 86.1446,177.212 87.5,174C 89.6391,173.736 91.3057,174.569 92.5,176.5C 91.1224,180.803 89.4557,184.97 87.5,189C 84.9023,188.874 82.569,187.874 80.5,186C 78.7412,185.202 77.0745,185.369 75.5,186.5C 84.7962,191.877 94.7962,195.377 105.5,197C 104.584,197.278 103.918,197.778 103.5,198.5C 102.85,198.196 102.183,197.863 101.5,197.5C 100.824,198.602 100.158,199.602 99.5,200.5C 99.5,199.5 99.5,198.5 99.5,197.5C 85.6088,194.887 73.2754,189.054 62.5,180C 62.8346,178.497 62.8346,177.164 62.5,176C 60.6667,174.833 59.1667,173.333 58,171.5C 57.6667,171.833 57.3333,172.167 57,172.5C 56.5831,171.244 55.7498,170.577 54.5,170.5C 54.4226,169.25 53.756,168.417 52.5,168C 52.8333,167.667 53.1667,167.333 53.5,167C 52.1667,166 50.8333,165 49.5,164C 49.8333,163.667 50.1667,163.333 50.5,163C 47.9722,162.002 47.9722,161.169 50.5,160.5C 51.1667,160.667 51.8333,160.833 52.5,161C 51.7307,163.482 52.7307,165.315 55.5,166.5C 57.8333,164.667 60.1667,162.833 62.5,161C 67.236,159.782 71.4027,160.616 75,163.5C 76.47,161.848 78.3033,160.848 80.5,160.5C 85.1919,163.178 89.8586,165.844 94.5,168.5 Z"/></g>
<g><path style="opacity:0.51" fill="#dadcde" d="M 37.5,152.5 C 38.0998,153.9 39.0998,154.9 40.5,155.5C 38.8624,156.657 37.1957,157.824 35.5,159C 36.5,159.333 37.5,159.667 38.5,160C 38.1667,160.333 37.8333,160.667 37.5,161C 38.4162,161.374 39.2496,161.874 40,162.5C 41.7863,160.901 43.953,160.067 46.5,160C 53.3333,159.833 60.1667,159.667 67,159.5C 74.3342,159.536 81.5009,160.203 88.5,161.5C 91.3925,159.929 94.5592,159.263 98,159.5C 107.995,161.072 118.162,161.905 128.5,162C 129.108,162.87 129.941,163.37 131,163.5C 134.316,162.938 137.483,161.938 140.5,160.5C 141.386,161.325 141.719,162.325 141.5,163.5C 143.923,163.576 145.756,162.576 147,160.5C 148.749,160.748 149.582,161.748 149.5,163.5C 136.711,171.36 122.711,174.194 107.5,172C 103.178,170.725 98.8442,169.558 94.5,168.5C 89.8586,165.844 85.1919,163.178 80.5,160.5C 78.3033,160.848 76.47,161.848 75,163.5C 71.4027,160.616 67.236,159.782 62.5,161C 60.1667,162.833 57.8333,164.667 55.5,166.5C 52.7307,165.315 51.7307,163.482 52.5,161C 51.8333,160.833 51.1667,160.667 50.5,160.5C 47.9722,161.169 47.9722,162.002 50.5,163C 50.1667,163.333 49.8333,163.667 49.5,164C 50.8333,165 52.1667,166 53.5,167C 53.1667,167.333 52.8333,167.667 52.5,168C 53.756,168.417 54.4226,169.25 54.5,170.5C 54.5654,170.938 54.3988,171.272 54,171.5C 52.8631,170.636 51.5298,169.636 50,168.5C 48.5421,169.747 47.0421,169.747 45.5,168.5C 44.8182,169.243 44.1515,169.909 43.5,170.5C 43.1034,169.475 42.4368,169.308 41.5,170C 39.6789,171.743 37.6789,173.243 35.5,174.5C 33.8884,173.442 33.0551,172.108 33,170.5C 35.5888,168.789 38.0888,166.955 40.5,165C 37.4512,165.778 34.6179,167.278 32,169.5C 33.3285,166.836 35.4952,164.67 38.5,163C 35.5963,163.349 32.9296,164.515 30.5,166.5C 29.707,165.645 30.0403,164.811 31.5,164C 28.0407,164.734 27.7074,163.734 30.5,161C 29.8333,160.667 29.1667,160.333 28.5,160C 30.8147,158.891 32.3147,157.057 33,154.5C 34.4705,153.733 35.9705,153.067 37.5,152.5 Z"/></g>
<g><path style="opacity:0.075" fill="#fdfefe" d="M 32.5,191.5 C 21.5,191.5 10.5,191.5 -0.5,191.5C -0.5,184.167 -0.5,176.833 -0.5,169.5C 4.59454,169.429 9.59454,170.095 14.5,171.5C 15.4164,171.457 16.0831,171.124 16.5,170.5C 18.486,168.24 20.6526,166.907 23,166.5C 24.2613,166.759 25.2613,167.426 26,168.5C 25.9012,172.372 24.4012,175.705 21.5,178.5C 21.7093,179.086 22.0426,179.586 22.5,180C 26.8711,180.172 31.2044,180.672 35.5,181.5C 36.1667,182.5 36.8333,183.5 37.5,184.5C 35.4139,185.549 33.4139,187.382 31.5,190C 32.056,190.383 32.3893,190.883 32.5,191.5 Z"/></g>
<g><path style="opacity:0.493" fill="#f0f2f3" d="M 145.5,175.5 C 143.194,175.993 140.861,176.326 138.5,176.5C 138.238,175.022 138.571,173.689 139.5,172.5C 140.524,173.853 141.857,174.52 143.5,174.5C 143.286,170.743 144.286,170.076 146.5,172.5C 147.745,171.045 147.578,169.711 146,168.5C 128.205,176.132 110.372,176.299 92.5,169C 93.0944,168.536 93.7611,168.369 94.5,168.5C 98.8442,169.558 103.178,170.725 107.5,172C 122.711,174.194 136.711,171.36 149.5,163.5C 152.193,162.448 154.86,161.448 157.5,160.5C 157.222,162.346 157.889,163.68 159.5,164.5C 160.386,163.675 160.719,162.675 160.5,161.5C 161.978,161.238 163.311,161.571 164.5,162.5C 158.621,167.598 152.288,171.931 145.5,175.5 Z"/></g>
<g><path style="opacity:0.475" fill="#d3d4d6" d="M 177.5,170.5 C 176.833,171.5 176.167,172.5 175.5,173.5C 167.563,180.121 158.897,185.454 149.5,189.5C 135.552,193.961 121.219,195.627 106.5,194.5C 106.888,189.781 107.555,185.114 108.5,180.5C 114.176,180.666 119.843,180.499 125.5,180C 130.187,179.638 134.52,178.471 138.5,176.5C 140.861,176.326 143.194,175.993 145.5,175.5C 149.048,175.905 152.381,175.405 155.5,174C 154.5,173.667 153.5,173.333 152.5,173C 155.175,172.063 158.175,170.896 161.5,169.5C 162.711,168.726 162.711,167.893 161.5,167C 163,166.5 164.5,166 166,165.5C 167.526,167.35 169.359,168.85 171.5,170C 173.686,170.061 175.686,170.228 177.5,170.5 Z"/></g>
<g><path style="opacity:0.483" fill="#d2d4d6" d="M 184.5,152.5 C 189.623,153.284 194.289,155.117 198.5,158C 198.272,158.399 197.938,158.565 197.5,158.5C 196.761,158.369 196.094,158.536 195.5,159C 198.502,161.503 201.835,163.503 205.5,165C 206.774,165.977 206.774,166.811 205.5,167.5C 204.125,165.93 202.459,165.097 200.5,165C 201.5,166 202.5,167 203.5,168C 203.167,168.167 202.833,168.333 202.5,168.5C 199.003,165.917 195.336,163.584 191.5,161.5C 191.167,162.167 190.833,162.833 190.5,163.5C 189.452,162.617 188.285,161.95 187,161.5C 183.839,164.47 180.672,167.47 177.5,170.5C 175.686,170.228 173.686,170.061 171.5,170C 169.359,168.85 167.526,167.35 166,165.5C 164.5,166 163,166.5 161.5,167C 162.711,167.893 162.711,168.726 161.5,169.5C 158.175,170.896 155.175,172.063 152.5,173C 153.5,173.333 154.5,173.667 155.5,174C 152.381,175.405 149.048,175.905 145.5,175.5C 152.288,171.931 158.621,167.598 164.5,162.5C 163.311,161.571 161.978,161.238 160.5,161.5C 160.719,162.675 160.386,163.675 159.5,164.5C 157.889,163.68 157.222,162.346 157.5,160.5C 154.86,161.448 152.193,162.448 149.5,163.5C 149.582,161.748 148.749,160.748 147,160.5C 145.756,162.576 143.923,163.576 141.5,163.5C 141.719,162.325 141.386,161.325 140.5,160.5C 137.483,161.938 134.316,162.938 131,163.5C 129.941,163.37 129.108,162.87 128.5,162C 118.162,161.905 107.995,161.072 98,159.5C 94.5592,159.263 91.3925,159.929 88.5,161.5C 81.5009,160.203 74.3342,159.536 67,159.5C 60.1667,159.667 53.3333,159.833 46.5,160C 43.953,160.067 41.7863,160.901 40,162.5C 39.2496,161.874 38.4162,161.374 37.5,161C 37.8333,160.667 38.1667,160.333 38.5,160C 37.5,159.667 36.5,159.333 35.5,159C 37.1957,157.824 38.8624,156.657 40.5,155.5C 42.2307,156.207 43.8974,157.207 45.5,158.5C 46.8333,155.833 48.1667,155.833 49.5,158.5C 50.9045,155.929 52.2379,155.929 53.5,158.5C 61.8333,158.5 70.1667,158.5 78.5,158.5C 82.8333,158.5 87.1667,158.5 91.5,158.5C 109.68,158.72 127.68,158.72 145.5,158.5C 153.167,158.5 160.833,158.5 168.5,158.5C 169.75,158.423 170.583,157.756 171,156.5C 172.333,159.167 173.667,159.167 175,156.5C 176.685,158.988 178.019,158.655 179,155.5C 180.049,156.517 181.216,156.684 182.5,156C 182.043,155.586 181.709,155.086 181.5,154.5C 182.274,153.289 183.107,153.289 184,154.5C 184.464,153.906 184.631,153.239 184.5,152.5 Z"/></g>
<g><path style="opacity:0.482" fill="#e0e2e3" d="M 205.5,167.5 C 205.336,169.151 204.336,170.818 202.5,172.5C 187.146,161.845 186.812,162.345 201.5,174C 198.352,172.924 195.352,171.591 192.5,170C 194.539,172.374 196.872,174.374 199.5,176C 196.538,176.09 194.204,174.757 192.5,172C 191.833,171.333 191.167,171.333 190.5,172C 199.499,181.001 199.166,181.334 189.5,173C 188.833,172.333 188.167,172.333 187.5,173C 190.167,175.667 192.833,178.333 195.5,181C 192.833,179.667 190.167,178.333 187.5,177C 189.5,179 191.5,181 193.5,183C 190.394,181.935 187.727,179.935 185.5,177C 184.833,176.333 184.167,176.333 183.5,177C 186.167,179.667 188.833,182.333 191.5,185C 190.167,185 188.833,185 187.5,185C 189.26,185.965 189.594,187.132 188.5,188.5C 187.167,187.167 185.833,185.833 184.5,184.5C 183.479,185.002 183.312,185.668 184,186.5C 185.324,189.244 187.491,190.577 190.5,190.5C 190.5,190.833 190.5,191.167 190.5,191.5C 188.167,193.5 185.833,195.5 183.5,197.5C 180.564,193.548 177.564,189.548 174.5,185.5C 174.667,185.167 174.833,184.833 175,184.5C 177.333,187.167 179.667,189.833 182,192.5C 179.591,187.542 176.425,182.876 172.5,178.5C 172.667,178.167 172.833,177.833 173,177.5C 177.984,182.858 178.484,182.524 174.5,176.5C 175.127,175.583 175.461,174.583 175.5,173.5C 176.167,172.5 176.833,171.5 177.5,170.5C 180.672,167.47 183.839,164.47 187,161.5C 188.285,161.95 189.452,162.617 190.5,163.5C 190.833,162.833 191.167,162.167 191.5,161.5C 195.336,163.584 199.003,165.917 202.5,168.5C 202.833,168.333 203.167,168.167 203.5,168C 202.5,167 201.5,166 200.5,165C 202.459,165.097 204.125,165.93 205.5,167.5 Z"/></g>
<g><path style="opacity:0.013" fill="#fefefe" d="M 224.5,173.5 C 224.5,179.5 224.5,185.5 224.5,191.5C 213.167,191.5 201.833,191.5 190.5,191.5C 190.5,191.167 190.5,190.833 190.5,190.5C 194.246,184.914 198.579,179.747 203.5,175C 210.485,174.229 217.485,173.729 224.5,173.5 Z"/></g>
<g><path style="opacity:0.475" fill="#e3e4e6" d="M 175.5,173.5 C 175.461,174.583 175.127,175.583 174.5,176.5C 178.484,182.524 177.984,182.858 173,177.5C 172.833,177.833 172.667,178.167 172.5,178.5C 176.425,182.876 179.591,187.542 182,192.5C 179.667,189.833 177.333,187.167 175,184.5C 174.833,184.833 174.667,185.167 174.5,185.5C 177.564,189.548 180.564,193.548 183.5,197.5C 180.467,200.19 177.133,202.523 173.5,204.5C 171.888,202.702 170.388,200.702 169,198.5C 168.508,199.549 168.674,200.549 169.5,201.5C 168.833,202.833 168.167,202.833 167.5,201.5C 166.253,198.671 164.753,196.005 163,193.5C 163.524,196.581 164.691,199.581 166.5,202.5C 166.167,202.833 165.833,203.167 165.5,203.5C 162.746,198.992 160.246,194.326 158,189.5C 157.333,190.5 157.333,191.5 158,192.5C 160.568,196.612 162.235,200.945 163,205.5C 156.768,192.203 156.268,192.37 161.5,206C 161.167,206.167 160.833,206.333 160.5,206.5C 159.416,205.335 158.583,204.002 158,202.5C 157.667,203.5 157.333,204.5 157,205.5C 154.709,199.925 152.209,194.591 149.5,189.5C 158.897,185.454 167.563,180.121 175.5,173.5 Z"/></g>
<g><path style="opacity:0.471" fill="#d4d5d7" d="M 54.5,170.5 C 55.7498,170.577 56.5831,171.244 57,172.5C 57.3333,172.167 57.6667,171.833 58,171.5C 59.1667,173.333 60.6667,174.833 62.5,176C 62.8346,177.164 62.8346,178.497 62.5,180C 73.2754,189.054 85.6088,194.887 99.5,197.5C 99.5,198.5 99.5,199.5 99.5,200.5C 98.8478,201.725 97.6811,202.392 96,202.5C 87.3203,200.775 79.1536,197.775 71.5,193.5C 67.3291,190.581 62.9958,187.914 58.5,185.5C 56.9596,187.387 55.2929,189.22 53.5,191C 52.8333,191.667 52.1667,191.667 51.5,191C 54.446,188.845 56.1127,186.345 56.5,183.5C 54.7665,186.236 52.4331,188.236 49.5,189.5C 50.9061,186.586 52.9061,184.086 55.5,182C 54.8333,181.333 54.1667,181.333 53.5,182C 51.5479,184.074 49.7146,186.241 48,188.5C 48.5413,185.608 50.0413,183.108 52.5,181C 51.8333,180.333 51.1667,180.333 50.5,181C 49.3333,182.833 47.8333,184.333 46,185.5C 45.8374,183.613 46.6707,182.113 48.5,181C 46.5,181.667 44.5,182.333 42.5,183C 51.8576,174.016 51.5243,173.516 41.5,181.5C 42.5788,178.847 44.5788,176.347 47.5,174C 45.1667,175 42.8333,176 40.5,177C 42.1667,175.333 43.8333,173.667 45.5,172C 43.4324,172.017 41.7657,173.017 40.5,175C 39.2411,175.982 37.9078,176.315 36.5,176C 38.8636,174.158 41.1969,172.325 43.5,170.5C 44.1515,169.909 44.8182,169.243 45.5,168.5C 47.0421,169.747 48.5421,169.747 50,168.5C 51.5298,169.636 52.8631,170.636 54,171.5C 54.3988,171.272 54.5654,170.938 54.5,170.5 Z"/></g>
<g><path style="opacity:0.471" fill="#f1f2f3" d="M 108.5,180.5 C 107.555,185.114 106.888,189.781 106.5,194.5C 121.219,195.627 135.552,193.961 149.5,189.5C 152.209,194.591 154.709,199.925 157,205.5C 157.333,204.5 157.667,203.5 158,202.5C 158.583,204.002 159.416,205.335 160.5,206.5C 160.833,206.333 161.167,206.167 161.5,206C 156.268,192.37 156.768,192.203 163,205.5C 162.235,200.945 160.568,196.612 158,192.5C 157.333,191.5 157.333,190.5 158,189.5C 160.246,194.326 162.746,198.992 165.5,203.5C 165.833,203.167 166.167,202.833 166.5,202.5C 164.691,199.581 163.524,196.581 163,193.5C 164.753,196.005 166.253,198.671 167.5,201.5C 168.167,202.833 168.833,202.833 169.5,201.5C 168.674,200.549 168.508,199.549 169,198.5C 170.388,200.702 171.888,202.702 173.5,204.5C 163.931,211.615 153.264,216.615 141.5,219.5C 140.296,212.145 138.962,204.811 137.5,197.5C 128.719,198.668 120.052,199.002 111.5,198.5C 112.992,204.8 114.325,211.134 115.5,217.5C 115.5,218.167 115.167,218.5 114.5,218.5C 113.167,211.833 111.833,205.167 110.5,198.5C 109.325,198.281 108.325,198.614 107.5,199.5C 101.724,211.34 101.391,211.174 106.5,199C 105.552,198.517 104.552,198.351 103.5,198.5C 103.918,197.778 104.584,197.278 105.5,197C 94.7962,195.377 84.7962,191.877 75.5,186.5C 77.0745,185.369 78.7412,185.202 80.5,186C 82.569,187.874 84.9023,188.874 87.5,189C 89.4557,184.97 91.1224,180.803 92.5,176.5C 91.3057,174.569 89.6391,173.736 87.5,174C 86.1446,177.212 84.6446,180.378 83,183.5C 81.3005,184.406 79.4672,184.739 77.5,184.5C 77.4332,182.599 77.7665,180.766 78.5,179C 81.0372,175.142 83.5372,171.308 86,167.5C 86.2189,168.938 86.7189,170.271 87.5,171.5C 90.1849,168.695 91.8516,169.362 92.5,173.5C 95.0547,170.749 96.0547,171.416 95.5,175.5C 97.143,175.52 98.4763,174.853 99.5,173.5C 100.386,174.325 100.719,175.325 100.5,176.5C 102.143,176.52 103.476,175.853 104.5,174.5C 105.386,175.325 105.719,176.325 105.5,177.5C 107.143,177.52 108.476,176.853 109.5,175.5C 110.262,176.628 110.929,177.795 111.5,179C 110.263,179.232 109.263,179.732 108.5,180.5 Z"/></g>
<g><path style="opacity:0.475" fill="#d4d6d8" d="M 97.5,177.5 C 99.6957,177.565 101.696,178.232 103.5,179.5C 102.026,183.731 101.026,188.064 100.5,192.5C 98.5,192.5 96.5,192.5 94.5,192.5C 95.117,187.415 96.117,182.415 97.5,177.5 Z"/></g>
<g><path style="opacity:0.47" fill="#fafbfb" d="M 141.5,219.5 C 139.883,220.038 138.216,220.371 136.5,220.5C 131.167,220.5 125.833,220.5 120.5,220.5C 120.307,216.551 119.807,216.551 119,220.5C 118.333,219.167 117.667,219.167 117,220.5C 116.768,219.263 116.268,218.263 115.5,217.5C 114.325,211.134 112.992,204.8 111.5,198.5C 120.052,199.002 128.719,198.668 137.5,197.5C 138.962,204.811 140.296,212.145 141.5,219.5 Z"/></g>
<g><path style="opacity:0.471" fill="#eaecec" d="M 71.5,193.5 C 70.2702,195.297 69.6036,197.297 69.5,199.5C 72.4929,198.865 75.4929,198.699 78.5,199C 74.4344,199.979 70.4344,201.146 66.5,202.5C 65.4104,203.609 65.4104,204.609 66.5,205.5C 74.6033,210.476 83.27,212.976 92.5,213C 95.1924,215.632 94.859,217.966 91.5,220C 91.8333,220.167 92.1667,220.333 92.5,220.5C 93.4255,219.359 94.2588,219.359 95,220.5C 95.6667,219.833 96.3333,219.167 97,218.5C 99.724,219.776 102.724,220.442 106,220.5C 109.252,220.481 112.085,219.814 114.5,218.5C 115.167,218.5 115.5,218.167 115.5,217.5C 116.268,218.263 116.768,219.263 117,220.5C 117.667,219.167 118.333,219.167 119,220.5C 119.807,216.551 120.307,216.551 120.5,220.5C 125.833,220.5 131.167,220.5 136.5,220.5C 105.659,227.523 76.9927,222.523 50.5,205.5C 51.4099,203.513 53.4099,202.013 56.5,201C 54.5,199.333 52.5,197.667 50.5,196C 46.6263,193.169 42.6263,189.503 38.5,185C 39.1667,184.333 39.8333,184.333 40.5,185C 43.0159,187.683 45.6826,190.183 48.5,192.5C 49.3857,191.675 49.719,190.675 49.5,189.5C 52.4331,188.236 54.7665,186.236 56.5,183.5C 56.1127,186.345 54.446,188.845 51.5,191C 52.1667,191.667 52.8333,191.667 53.5,191C 55.2929,189.22 56.9596,187.387 58.5,185.5C 62.9958,187.914 67.3291,190.581 71.5,193.5 Z"/></g>
<g><path style="opacity:0.471" fill="#f8fafa" d="M 71.5,193.5 C 79.1536,197.775 87.3203,200.775 96,202.5C 97.6811,202.392 98.8478,201.725 99.5,200.5C 100.158,199.602 100.824,198.602 101.5,197.5C 102.183,197.863 102.85,198.196 103.5,198.5C 104.552,198.351 105.552,198.517 106.5,199C 101.391,211.174 101.724,211.34 107.5,199.5C 108.325,198.614 109.325,198.281 110.5,198.5C 111.833,205.167 113.167,211.833 114.5,218.5C 112.085,219.814 109.252,220.481 106,220.5C 102.724,220.442 99.724,219.776 97,218.5C 96.3333,219.167 95.6667,219.833 95,220.5C 94.2588,219.359 93.4255,219.359 92.5,220.5C 92.1667,220.333 91.8333,220.167 91.5,220C 94.859,217.966 95.1924,215.632 92.5,213C 83.27,212.976 74.6033,210.476 66.5,205.5C 65.4104,204.609 65.4104,203.609 66.5,202.5C 70.4344,201.146 74.4344,199.979 78.5,199C 75.4929,198.699 72.4929,198.865 69.5,199.5C 69.6036,197.297 70.2702,195.297 71.5,193.5 Z"/></g>
</svg>
