<svg width="161" height="35" viewBox="0 0 161 35" fill="none" xmlns="http://www.w3.org/2000/svg">
<path d="M35 17.4999C35 22.3324 33.0412 26.7074 29.8744 29.8743C26.7075 33.0412 22.3325 34.9999 17.5 34.9999C12.6675 34.9999 8.29251 33.0412 5.12563 29.8743C1.95875 26.7074 0 22.3324 0 17.4999C0 12.6674 1.95875 8.29245 5.12563 5.12557C8.29251 1.95869 12.6675 -6.10352e-05 17.5 -6.10352e-05C22.3325 -6.10352e-05 26.7075 1.95869 29.8744 5.12557C33.0412 8.29245 35 12.6674 35 17.4999Z" fill="white"/>
<path d="M34.5 17.4999C34.5 22.1945 32.5978 26.4438 29.5208 29.5208C26.4439 32.5977 22.1946 34.4999 17.5 34.4999C12.8054 34.4999 8.55613 32.5977 5.47918 29.5208C2.40224 26.4438 0.5 22.1945 0.5 17.4999C0.5 12.8054 2.40224 8.55607 5.47918 5.47912C8.55613 2.40218 12.8054 0.499939 17.5 0.499939C22.1946 0.499939 26.4439 2.40218 29.5208 5.47912C32.5978 8.55607 34.5 12.8054 34.5 17.4999Z" stroke="white" stroke-opacity="0.3"/>
<path d="M98 17.4999C98 22.3324 96.0412 26.7074 92.8744 29.8743C89.7075 33.0412 85.3325 34.9999 80.5 34.9999C75.6675 34.9999 71.2925 33.0412 68.1256 29.8743C64.9588 26.7074 63 22.3324 63 17.4999C63 12.6674 64.9588 8.29245 68.1256 5.12557C71.2925 1.95869 75.6675 -6.10352e-05 80.5 -6.10352e-05C85.3325 -6.10352e-05 89.7075 1.95869 92.8744 5.12557C96.0412 8.29245 98 12.6674 98 17.4999Z" fill="white"/>
<path d="M97.5 17.4999C97.5 22.1945 95.5978 26.4438 92.5208 29.5208C89.4439 32.5977 85.1946 34.4999 80.5 34.4999C75.8054 34.4999 71.5561 32.5977 68.4792 29.5208C65.4022 26.4438 63.5 22.1945 63.5 17.4999C63.5 12.8054 65.4022 8.55607 68.4792 5.47912C71.5561 2.40218 75.8054 0.499939 80.5 0.499939C85.1946 0.499939 89.4439 2.40218 92.5208 5.47912C95.5978 8.55607 97.5 12.8054 97.5 17.4999Z" stroke="white" stroke-opacity="0.3"/>
<path d="M161 17.4999C161 22.3324 159.041 26.7074 155.874 29.8743C152.707 33.0412 148.332 34.9999 143.5 34.9999C138.668 34.9999 134.293 33.0412 131.126 29.8743C127.959 26.7074 126 22.3324 126 17.4999C126 12.6674 127.959 8.29245 131.126 5.12557C134.293 1.95869 138.668 -6.10352e-05 143.5 -6.10352e-05C148.332 -6.10352e-05 152.707 1.95869 155.874 5.12557C159.041 8.29245 161 12.6674 161 17.4999Z" fill="white"/>
<path d="M160.5 17.4999C160.5 22.1945 158.598 26.4438 155.521 29.5208C152.444 32.5977 148.195 34.4999 143.5 34.4999C138.805 34.4999 134.556 32.5977 131.479 29.5208C128.402 26.4438 126.5 22.1945 126.5 17.4999C126.5 12.8054 128.402 8.55607 131.479 5.47912C134.556 2.40218 138.805 0.499939 143.5 0.499939C148.195 0.499939 152.444 2.40218 155.521 5.47912C158.598 8.55607 160.5 12.8054 160.5 17.4999Z" stroke="white" stroke-opacity="0.3"/>
</svg>
